<svg class="man-2-svg" viewBox="0 0 232 484" fill="none" xmlns="http://www.w3.org/2000/svg">
<g opacity="0.47" filter="url(#filter0_f_84_597)">
<path d="M109.644 64.2629L109.834 65.8652L115.144 75.5L125.021 87L141.644 73.5L143.123 65.3571L142.981 64L109.644 64.2629Z" fill="black"/>
<path d="M109.644 64.2539L109.831 65.8011C111.455 68.6276 113.855 70.9775 116.773 72.5981C119.691 74.2186 123.017 75.0483 126.392 74.9978C129.768 74.9474 133.065 74.0187 135.928 72.3117C138.792 70.6047 141.114 68.1841 142.644 65.3105L142.504 64L109.644 64.2539Z" fill="black"/>
<path d="M127.672 73.8885C132.684 73.3398 137.277 70.7922 140.439 66.8063C143.602 62.8204 145.075 57.7225 144.535 52.6341L142.449 33L104.644 37.1404L106.73 56.7707C106.997 59.2906 107.751 61.7323 108.949 63.9563C110.146 66.1803 111.763 68.1432 113.708 69.7327C115.653 71.3223 117.887 72.5074 120.283 73.2205C122.678 73.9336 125.189 74.1605 127.672 73.8885Z" fill="black"/>
<path d="M142.539 53.0711C143.112 56.361 143.394 59.0619 146.724 58.4951C150.054 57.9282 155.177 54.3122 154.599 51.0223C154.463 50.2397 154.172 49.4913 153.743 48.8198C153.314 48.1482 152.756 47.5667 152.099 47.1085C151.443 46.6502 150.702 46.3242 149.918 46.149C149.134 45.9738 148.322 45.9529 147.53 46.0874C146.738 46.2219 145.98 46.5093 145.301 46.9331C144.621 47.3568 144.032 47.9087 143.568 48.5572C143.105 49.2057 142.775 49.9381 142.597 50.7126C142.42 51.4871 142.399 52.2885 142.535 53.0711H142.539ZM109.878 55.9757C109.855 59.3101 110.024 62.0221 106.645 61.9999C103.266 61.9776 97.6144 59.236 97.6444 55.8942C97.6553 54.2906 98.3107 52.757 99.4662 51.6307C100.622 50.5045 102.183 49.8778 103.806 49.8886C105.429 49.8994 106.982 50.5468 108.122 51.6884C109.262 52.8299 109.896 54.3721 109.885 55.9757H109.878Z" fill="black"/>
<path d="M151.564 46.8582C151.564 46.8582 155.468 42.3054 155.64 36.0072C155.699 34.2292 155.117 32.4885 153.999 31.0967C152.881 29.7048 151.3 28.7528 149.538 28.4109L149.381 28.3854C149.381 28.3854 152.562 16.8509 140.784 9.94176C129.006 3.03266 119.638 16.7818 119.638 16.7818C119.073 15.9966 118.272 15.4085 117.349 15.1016C116.427 14.7946 115.43 14.7845 114.501 15.0727C114.501 15.0727 111.669 15.5781 111.797 18.8727C111.797 18.8727 106.954 13.669 98.8413 19.4872C88.8244 26.6763 99.8833 52 99.8833 52C99.8833 52 101.96 48.2364 106.906 50.04L105.567 40.7709C105.567 40.7709 115.07 45.3964 119.737 36.9636C119.737 36.9636 124.925 44.4254 131.912 42.0982C139.408 39.6 138.909 48.1273 144.482 47.1273C144.49 47.1309 147.858 44.5382 151.564 46.8582Z" fill="black"/>
<path d="M132.641 63C132.694 64.5014 132.141 65.9641 131.098 67.0804C130.056 68.1966 128.605 68.8796 127.051 68.9855C125.498 69.0915 123.962 68.6122 122.767 67.6485C121.572 66.6847 120.811 65.3117 120.644 63.818L132.641 63Z" fill="black"/>
<path d="M115.669 46.925C115.715 47.1231 115.826 47.2952 115.981 47.4072C116.135 47.5192 116.323 47.5629 116.505 47.5298L120.469 46.7857C120.744 46.7077 120.98 46.5133 121.126 46.2446C121.273 45.9758 121.317 45.6542 121.251 45.3494C121.212 45.1916 121.144 45.0445 121.051 44.917C120.958 44.7895 120.842 44.6845 120.711 44.6084C120.58 44.5323 120.436 44.4867 120.289 44.4746C120.141 44.4624 119.993 44.4839 119.853 44.5377L116.138 45.982C115.963 46.0461 115.817 46.1816 115.73 46.3606C115.643 46.5396 115.621 46.7487 115.669 46.9449V46.925ZM134.644 45.2578C134.645 45.4615 134.574 45.6576 134.447 45.8056C134.321 45.9537 134.147 46.0424 133.963 46.0536L129.953 46.3719C129.666 46.3719 129.391 46.2462 129.188 46.0223C128.986 45.7985 128.872 45.4948 128.872 45.1783C128.874 45.0141 128.906 44.8521 128.967 44.7025C129.029 44.5528 129.117 44.4188 129.227 44.3086C129.338 44.1984 129.467 44.1145 129.608 44.0622C129.749 44.0099 129.898 43.9903 130.046 44.0045L133.967 44.4302C134.148 44.4463 134.317 44.5371 134.44 44.6847C134.562 44.8322 134.63 45.0255 134.63 45.226L134.644 45.2578ZM132.472 53.1758C132.526 54.1387 132.046 54.9544 131.391 54.9982C130.735 55.0419 130.18 54.3018 130.126 53.339C130.072 52.3761 130.547 51.5644 131.207 51.5166C131.866 51.4689 132.417 52.2169 132.472 53.1758Z" fill="black"/>
<path d="M131.836 56.9906L134.266 56.8315C134.879 56.7925 135.478 56.6301 136.029 56.3536C136.58 56.0772 137.073 55.6922 137.478 55.2205C137.884 54.7489 138.195 54.2 138.394 53.6051C138.592 53.0102 138.674 52.3811 138.635 51.7538L138.404 48L126.644 48.7397L126.879 52.4971C126.948 53.6329 127.409 54.7066 128.178 55.5274C128.948 56.3481 129.977 56.8626 131.082 56.9795C131.333 57.0024 131.585 57.0061 131.836 56.9906ZM137.761 48.7508L137.949 51.8019C137.983 52.3379 137.914 52.8756 137.745 53.3842C137.576 53.8928 137.311 54.3623 136.965 54.7659C136.619 55.1695 136.199 55.4992 135.728 55.7363C135.258 55.9733 134.746 56.113 134.223 56.1474L131.793 56.3027C131.27 56.3383 130.746 56.2676 130.25 56.0948C129.754 55.9219 129.297 55.6503 128.904 55.2955C128.511 54.9408 128.19 54.5099 127.96 54.0278C127.731 53.5456 127.596 53.0216 127.565 52.486L127.377 49.4386L137.761 48.7508Z" fill="black"/>
<path d="M120.64 53.4297C120.689 54.255 120.283 54.957 119.724 54.9981C119.164 55.0392 118.694 54.3954 118.648 53.5701C118.602 52.7447 119.008 52.0393 119.565 52.0016C120.121 51.9639 120.588 52.6009 120.64 53.4297Z" fill="black"/>
<path d="M116.833 57.9884L119.263 57.8331C120.499 57.7485 121.652 57.1675 122.471 56.2167C123.29 55.2659 123.709 54.0222 123.636 52.7566L123.405 49L111.644 49.7617L111.875 53.5145C111.944 54.6513 112.408 55.7256 113.182 56.5437C113.955 57.3619 114.989 57.8703 116.097 57.9773C116.341 58.0032 116.588 58.007 116.833 57.9884ZM122.759 49.7506L122.947 52.8009C123.012 53.8808 122.656 54.943 121.958 55.7547C121.259 56.5664 120.274 57.0612 119.22 57.1306L116.79 57.2859C116.267 57.3215 115.743 57.2508 115.247 57.078C114.751 56.9052 114.293 56.6337 113.9 56.279C113.507 55.9244 113.187 55.4936 112.957 55.0115C112.727 54.5295 112.593 54.0056 112.561 53.4702L112.374 50.4198L122.759 49.7506Z" fill="black"/>
<path d="M127.307 59.9985H127.273L122.9 59.0616C122.856 59.0529 122.815 59.0337 122.778 59.0053C122.742 58.977 122.711 58.9402 122.689 58.8976C122.666 58.8558 122.652 58.8092 122.646 58.7608C122.641 58.7124 122.646 58.6633 122.659 58.6169L125.636 48.2387C125.665 48.1532 125.721 48.0825 125.795 48.0407C125.868 47.9988 125.953 47.9889 126.033 48.0127C126.073 48.026 126.109 48.0478 126.141 48.0769C126.173 48.106 126.199 48.1418 126.218 48.1822C126.237 48.2225 126.249 48.2667 126.252 48.3121C126.256 48.3575 126.251 48.4032 126.238 48.4465L123.367 58.4529L127.393 59.3168C127.473 59.3385 127.542 59.3924 127.588 59.468C127.634 59.5435 127.653 59.6352 127.641 59.7251C127.625 59.8081 127.583 59.882 127.521 59.9324C127.459 59.9829 127.383 60.0065 127.307 59.9985Z" fill="black"/>
<path d="M138.051 49.312L112.314 50.9986C112.232 51.0042 112.149 50.9929 112.071 50.9652C111.992 50.9375 111.92 50.894 111.858 50.8372C111.796 50.7804 111.745 50.7113 111.709 50.6341C111.672 50.5568 111.651 50.4728 111.646 50.387C111.64 50.3011 111.651 50.215 111.678 50.1336C111.704 50.0521 111.746 49.977 111.801 49.9124C111.856 49.8478 111.922 49.7951 111.996 49.7572C112.071 49.7194 112.151 49.6971 112.234 49.6918L137.974 48.0014C138.057 47.9957 138.14 48.0072 138.219 48.0352C138.297 48.0631 138.37 48.1069 138.432 48.1642C138.494 48.2214 138.545 48.2908 138.581 48.3685C138.617 48.4462 138.638 48.5306 138.643 48.6168C138.648 48.7029 138.637 48.7893 138.61 48.871C138.584 48.9527 138.541 49.0281 138.486 49.0927C138.431 49.1573 138.364 49.21 138.29 49.2476C138.215 49.2853 138.134 49.3071 138.051 49.312Z" fill="black"/>
<path d="M35.1323 86.8189C35.1323 86.8189 26.1275 82.0823 20.7213 95.2975L33.694 94.6913L35.1323 86.8189Z" fill="black"/>
<path d="M39.1001 97.9785L28.7258 84.0497L23.8349 77.0894L13.0886 69.7792C12.9722 69.6999 12.8412 69.6447 12.7031 69.6168C12.5651 69.5888 12.4229 69.5887 12.2848 69.6164C12.1468 69.6441 12.0156 69.6991 11.8991 69.7782C11.7825 69.8572 11.683 69.9588 11.6062 70.0768C11.474 70.2821 11.4169 70.5267 11.4446 70.7693C11.4722 71.0118 11.5828 71.2374 11.7577 71.4077L18.1449 77.6074L17.0427 77.263C15.9271 76.9143 14.7196 77.0131 13.6755 77.5386L8.48426 80.1287C8.36869 80.1868 8.26734 80.2696 8.18749 80.3714C8.10763 80.4731 8.05122 80.5913 8.02227 80.7173C7.99332 80.8434 7.99255 80.9743 8.02001 81.1007C8.04748 81.2271 8.10248 81.3459 8.18113 81.4486C8.28871 81.5883 8.43586 81.6925 8.60343 81.7475C8.771 81.8026 8.95125 81.8059 9.12075 81.7572L12.7469 80.7101L15.5878 79.8834L13.1079 80.2306L10.7575 83.0412C10.6437 83.1793 10.5886 83.3565 10.6041 83.5348C10.6195 83.713 10.7043 83.8781 10.8401 83.9946C10.9538 84.0922 11.0967 84.1493 11.2464 84.1568C11.3961 84.1643 11.544 84.1217 11.6668 84.0359L14.6978 81.95L18.1008 80.7762L23.1185 89.6736L25.8987 100.304L39.1001 97.9785Z" fill="black"/>
<path d="M23.27 82.7323L13.4827 78.1142C13.2459 78.002 12.9799 77.9666 12.722 78.0131C12.4641 78.0595 12.2271 78.1854 12.0443 78.3732C11.9201 78.5002 11.8241 78.652 11.7628 78.8187C11.7014 78.9854 11.676 79.1632 11.6882 79.3405C11.7004 79.5177 11.75 79.6903 11.8337 79.847C11.9174 80.0037 12.0333 80.1409 12.1738 80.2497L18.8393 85.4079C18.8393 85.4079 19.7017 88.2653 23.1185 89.6733L25.6562 86.5128L23.27 82.7323Z" fill="black"/>
<path d="M23.27 82.953C23.3202 82.954 23.3691 82.9376 23.4086 82.9066C23.448 82.8757 23.4756 82.8321 23.4866 82.7832C23.4976 82.7342 23.4914 82.683 23.469 82.6382C23.4466 82.5933 23.4095 82.5575 23.3638 82.5369L13.5764 77.916C13.247 77.7591 12.8711 77.7296 12.5213 77.8333C12.1715 77.9371 11.8724 78.1666 11.6818 78.4777C11.4912 78.7888 11.4225 79.1595 11.4889 79.5182C11.5553 79.877 11.7522 80.1985 12.0416 80.4207L14.3947 82.2421C14.4401 82.2786 14.498 82.2957 14.5559 82.2895C14.6138 82.2833 14.6668 82.2543 14.7034 82.209C14.7399 82.1637 14.7569 82.1057 14.7507 82.0479C14.7445 81.99 14.7156 81.9369 14.6703 81.9004L12.3199 80.0791C12.2039 79.9888 12.1082 79.8752 12.039 79.7456C11.9698 79.6159 11.9286 79.4732 11.9182 79.3266C11.9078 79.18 11.9284 79.0329 11.9786 78.8948C12.0288 78.7567 12.1076 78.6307 12.2097 78.525C12.3617 78.3698 12.5582 78.2658 12.7719 78.2273C12.9857 78.1888 13.2062 78.2177 13.4028 78.3101L23.1902 82.931C23.2152 82.9433 23.2423 82.9508 23.27 82.953ZM18.539 80.1893C18.5799 80.1888 18.6198 80.1769 18.6544 80.155C18.6889 80.1331 18.7167 80.1021 18.7346 80.0653C19.4262 78.6545 18.2992 77.4669 18.2882 77.4559C18.248 77.4142 18.1929 77.3902 18.135 77.3892C18.0771 77.3882 18.0212 77.4102 17.9796 77.4504C17.9379 77.4906 17.914 77.5456 17.9129 77.6035C17.9119 77.6614 17.9339 77.7173 17.9741 77.759C18.0126 77.8003 18.8999 78.7399 18.3461 79.8752C18.3247 79.9251 18.3231 79.9813 18.3415 80.0324C18.3599 80.0836 18.3969 80.1258 18.4452 80.1507C18.4726 80.1715 18.5049 80.1847 18.539 80.1893Z" fill="black"/>
<path d="M20.5282 93.6356L20.7624 93.2967C21.4978 92.3157 22.5407 91.6094 23.7245 91.2907C25.1353 90.9491 26.637 91.3706 28.1002 91.3403C29.1508 91.3197 30.185 91.0767 31.1349 90.6274C32.0848 90.1781 32.9287 89.5327 33.6111 88.7337C34.1377 88.0991 34.5685 87.3908 34.8896 86.6313L46.8951 100.607L51.4444 105.895L57.2832 112.695L67.2332 103.572C69.3493 101.613 71.4876 99.6646 73.6093 97.7192C73.6809 97.6503 73.7443 97.6007 73.8159 97.5318C78.8997 92.8613 83.5978 87.7913 89.2602 83.8014C91.0678 82.5091 92.9966 81.2967 94.9668 80.1587L94.6334 114.952L63.855 140.87C62.2602 141.968 60.5265 142.85 58.6995 143.493L58.6527 143.509C57.1348 144.066 55.5 144.226 53.903 143.974C52.3061 143.722 50.7997 143.067 49.5266 142.071L49.4412 142.002C48.1567 141.001 47.0097 139.834 46.0299 138.533L19.3489 95.7766C19.6627 95.0221 20.0582 94.3041 20.5282 93.6356Z" fill="black"/>
<path d="M98.3921 421.639C98.3921 421.639 102.622 421.044 104.928 426.001C107.234 430.958 111.932 431.3 111.932 431.3L114.175 431.708L114.06 401.53L94.0798 400.183L98.3921 421.639Z" fill="black"/>
<path d="M114.101 412.408L114.175 431.697L111.932 431.289C111.932 431.289 107.234 430.95 104.928 425.99C102.622 421.03 98.3921 421.628 98.3921 421.628L96.5376 412.397L114.101 412.408Z" fill="black"/>
<path d="M204.216 461.659C204.216 461.659 207.147 461.044 209.308 466.001C211.468 470.958 215.871 471.3 215.871 471.3H222.247L216.205 441.946L198.06 442.142L204.216 461.659Z" fill="black"/>
<path d="M218.508 453.139L222.247 471.3H215.871C215.871 471.3 211.702 470.853 209.308 466.001C207.147 461.62 204.216 461.659 204.216 461.659L201.389 453.139H218.508Z" fill="black"/>
<path d="M75.574 428.454C75.9295 428.296 76.2711 428.178 76.577 428.06C77.1963 427.839 77.8346 427.676 78.4838 427.572C82.478 427.083 86.4258 426.27 90.2881 425.141H90.3019C90.5774 425.048 90.8337 424.976 91.0762 424.866C92.1315 424.533 93.0574 424.199 93.884 423.88C94.1595 423.783 94.4186 423.676 94.6473 423.568C95.6117 423.166 96.3859 422.797 96.9591 422.485C97.2346 422.331 97.4661 422.21 97.659 422.094C98.1522 421.818 98.3947 421.628 98.3947 421.628C98.3947 421.628 102.627 421.033 104.925 425.987C105.409 427.042 106.079 428.001 106.904 428.817C108.422 430.305 110.874 430.746 112.69 429.592C113.387 429.186 113.91 428.539 114.161 427.773V435.822H70.617C70.617 431.584 73.3366 429.476 75.574 428.454Z" fill="black"/>
<path d="M93.333 429.597C93.2711 429.62 93.206 429.632 93.1401 429.633C93.0663 429.633 92.9937 429.615 92.9291 429.579C92.8646 429.543 92.8101 429.492 92.7709 429.429L90.291 425.139C90.5665 425.048 90.8255 424.971 91.0708 424.883L93.49 429.071C93.5146 429.116 93.5301 429.165 93.5355 429.216C93.5409 429.267 93.5362 429.318 93.5216 429.367C93.5069 429.416 93.4828 429.462 93.4504 429.501C93.418 429.541 93.3781 429.573 93.333 429.597ZM96.9426 428.366C96.8845 428.401 96.8177 428.419 96.7497 428.418C96.6758 428.418 96.6031 428.398 96.5385 428.362C96.474 428.326 96.4196 428.274 96.3805 428.211L93.8786 423.91C94.1541 423.808 94.4131 423.703 94.6446 423.602L97.1052 427.867C97.1291 427.91 97.1438 427.958 97.1485 428.007C97.1532 428.056 97.1478 428.105 97.1325 428.152C97.1173 428.199 97.0925 428.242 97.0599 428.278C97.0272 428.315 96.9873 428.345 96.9426 428.366ZM100.073 427.084C100.008 427.11 99.9388 427.124 99.8689 427.123C99.7982 427.125 99.7281 427.109 99.6657 427.076C99.6033 427.042 99.5508 426.993 99.5135 426.933L96.9564 422.499C97.232 422.345 97.4607 422.224 97.6535 422.103L100.238 426.561C100.263 426.606 100.279 426.655 100.284 426.706C100.289 426.758 100.284 426.809 100.268 426.858C100.253 426.907 100.228 426.953 100.194 426.992C100.16 427.03 100.119 427.062 100.073 427.084Z" fill="black"/>
<path d="M177.168 475.822H223.644L223.311 474.535L223.11 473.785L221.536 467.787C221.098 469.31 218.549 469.991 216.431 470.297C213.951 470.655 211.628 469.366 210.269 467.266C209.974 466.799 209.715 466.31 209.495 465.803C207.329 460.843 203.18 461.65 203.18 461.65C202.961 461.822 202.731 461.977 202.491 462.116L201.835 462.507C201.136 462.906 200.417 463.268 199.68 463.59C199.454 463.698 199.217 463.805 198.955 463.901C198.192 464.221 197.324 464.555 196.335 464.888C196.098 464.984 195.858 465.056 195.597 465.163C191.991 466.292 188.294 467.105 184.547 467.594C183.938 467.698 183.34 467.861 182.762 468.081C182.464 468.189 182.144 468.318 181.811 468.475C179.717 469.476 177.168 471.584 177.168 475.822Z" fill="black"/>
<path d="M198.446 469.597C198.389 469.62 198.328 469.632 198.267 469.633C198.196 469.633 198.127 469.614 198.066 469.578C198.005 469.542 197.954 469.491 197.919 469.429L195.602 465.139C195.858 465.048 196.101 464.971 196.332 464.883L198.6 469.071C198.646 469.162 198.656 469.267 198.627 469.365C198.599 469.463 198.534 469.546 198.446 469.597ZM201.827 468.366C201.774 468.401 201.711 468.419 201.648 468.418C201.577 468.417 201.508 468.397 201.448 468.361C201.387 468.325 201.337 468.273 201.303 468.211L198.958 463.896C199.214 463.794 199.457 463.69 199.675 463.588L201.981 467.853C202.006 467.897 202.021 467.945 202.027 467.995C202.033 468.044 202.028 468.095 202.014 468.143C201.999 468.19 201.975 468.235 201.943 468.273C201.911 468.312 201.871 468.343 201.827 468.366ZM204.761 467.084C204.7 467.11 204.635 467.124 204.568 467.123C204.501 467.124 204.434 467.107 204.376 467.073C204.317 467.04 204.268 466.991 204.235 466.933L201.84 462.499C202.097 462.345 202.314 462.224 202.493 462.103L204.916 466.561C204.963 466.651 204.974 466.756 204.945 466.854C204.916 466.952 204.85 467.034 204.761 467.084Z" fill="black"/>
<path d="M172.742 181.052L220.644 447H195.815L134.88 239.192L119.174 279.202C117.777 282.096 117.159 285.304 117.38 288.51L118.757 417.498H91.8753L80.0048 285.512C79.7085 283.082 79.8958 280.619 80.5559 278.262L97.2759 172.888L128.435 164.622L170.869 165.608L172.742 181.052Z" fill="black"/>
<path d="M133.948 238.311L135.337 238.008L130.89 217.458L122.207 210.709L121.336 211.831L129.611 218.262L133.948 238.311Z" fill="black"/>
<path d="M105.909 203.105H79.6136L85.874 86.3974C94.9863 79.3021 98.4499 77.6957 112.153 75.3756C112.877 75.2516 119.094 174.401 120.036 189.468H119.898C119.805 193.116 118.29 196.584 115.677 199.131C113.063 201.679 109.558 203.104 105.909 203.105Z" fill="black"/>
<path d="M118.865 172.679C118.995 173.322 119.04 173.98 119 174.635V174.652L120.022 189.468L149.191 190.44L145.764 138.087L145.747 137.85L145.711 137.299V137.053L145.681 136.621L145.656 136.254L145.637 135.943V135.69L145.618 135.362V135.196L145.593 134.805V134.687L145.54 133.921V133.788L141.592 73.4659L140.261 74.2153L125.803 82.3439L115.591 75.3286L113.644 73L112.142 75.3754L118.774 171.541L118.865 172.679Z" fill="black"/>
<path d="M131.096 186.745C131.027 186.741 130.961 186.712 130.911 186.665C130.86 186.617 130.829 186.552 130.821 186.483C130.724 185.64 130.702 184.83 130.683 184.064C130.683 183.607 130.658 183.135 130.631 182.653C130.562 181.171 130.463 179.661 130.355 178.203C130.248 176.746 130.157 175.227 130.08 173.739C130.063 173.282 130.055 172.822 130.049 172.378C130.056 171.017 129.97 169.657 129.79 168.308C129.644 167.206 129.121 166.313 128.567 165.366C128.437 165.145 128.291 164.914 128.173 164.682C128.03 164.477 127.935 164.243 127.896 163.996C127.857 163.749 127.875 163.497 127.947 163.258C128.095 162.838 128.298 162.44 128.55 162.073C128.778 161.75 128.963 161.4 129.101 161.031C129.286 160.384 128.685 159.998 127.881 159.563C127.603 159.426 127.358 159.233 127.16 158.996C126.962 158.758 126.816 158.482 126.732 158.185C126.674 157.935 126.67 157.677 126.721 157.426C126.771 157.175 126.875 156.938 127.024 156.73C127.036 156.711 127.051 156.693 127.068 156.678C127.165 156.562 127.232 156.425 127.264 156.278C127.294 156.16 127.337 156.045 127.393 155.936C127.404 155.915 127.418 155.894 127.434 155.876C128.119 155.175 128.678 154.363 129.088 153.473C128.404 138.786 127.614 123.89 126.85 109.485C126.382 100.615 125.894 91.445 125.439 82.4071C125.435 82.3293 125.461 82.2529 125.513 82.1946C125.565 82.1362 125.637 82.1007 125.715 82.0957C125.793 82.0912 125.87 82.1175 125.929 82.1691C125.987 82.2207 126.023 82.2933 126.029 82.3713C126.487 91.4092 126.972 100.579 127.443 109.449C128.206 123.877 128.997 138.795 129.683 153.509C129.686 153.552 129.678 153.596 129.661 153.636C129.229 154.603 128.628 155.486 127.886 156.242C127.86 156.309 127.837 156.377 127.817 156.446C127.762 156.682 127.649 156.9 127.487 157.08C127.39 157.217 127.323 157.373 127.29 157.538C127.257 157.702 127.26 157.872 127.297 158.036C127.363 158.25 127.473 158.448 127.62 158.618C127.766 158.788 127.946 158.925 128.148 159.022C128.881 159.422 129.989 160.023 129.655 161.191C129.506 161.61 129.303 162.008 129.052 162.376C128.825 162.698 128.64 163.048 128.501 163.417C128.454 163.577 128.444 163.745 128.473 163.908C128.503 164.072 128.57 164.227 128.669 164.36C128.796 164.586 128.931 164.814 129.06 165.038C129.611 165.991 130.198 166.966 130.358 168.195C130.545 169.565 130.637 170.946 130.634 172.329C130.634 172.772 130.647 173.23 130.661 173.679C130.73 175.156 130.832 176.666 130.937 178.123C131.041 179.581 131.135 181.096 131.212 182.584C131.24 183.072 131.251 183.549 131.265 184.009C131.284 184.805 131.303 185.557 131.397 186.376C131.401 186.416 131.398 186.456 131.386 186.495C131.375 186.533 131.355 186.569 131.33 186.6C131.304 186.631 131.272 186.656 131.236 186.675C131.201 186.693 131.161 186.704 131.121 186.707L131.096 186.745Z" fill="black"/>
<path d="M118.796 86.4026C118.749 86.4008 118.704 86.3882 118.662 86.3657C118.621 86.3432 118.586 86.3115 118.559 86.2731L111.976 76.5684C111.932 76.5029 111.915 76.4224 111.929 76.3444C111.944 76.2665 111.988 76.1974 112.054 76.1523C112.12 76.1086 112.2 76.0926 112.278 76.1075C112.356 76.1224 112.424 76.1672 112.47 76.2322L118.898 85.7137L125.599 82.1316C125.645 82.1052 125.696 82.0913 125.748 82.0913C125.8 82.0913 125.852 82.1052 125.897 82.1316L131.179 85.4189L141.691 78.2933C141.757 78.2491 141.838 78.2328 141.915 78.248C141.993 78.2633 142.062 78.3088 142.106 78.3746C142.15 78.4403 142.166 78.521 142.151 78.5988C142.136 78.6765 142.09 78.7451 142.025 78.7893L131.353 86.0223C131.304 86.0532 131.248 86.0696 131.19 86.0696C131.133 86.0696 131.076 86.0532 131.028 86.0223L125.729 82.7158L118.948 86.3668C118.902 86.393 118.849 86.4055 118.796 86.4026ZM124.803 91.7124C124.793 91.9747 124.706 92.2281 124.552 92.4407C124.398 92.6534 124.184 92.8156 123.938 92.907C123.692 92.9984 123.425 93.0148 123.169 92.9542C122.914 92.8936 122.682 92.7587 122.503 92.5664C122.325 92.3742 122.207 92.1333 122.165 91.8742C122.123 91.6151 122.159 91.3494 122.268 91.1106C122.377 90.8718 122.554 90.6706 122.777 90.5325C123 90.3944 123.259 90.3256 123.522 90.3346C123.697 90.3403 123.869 90.3805 124.028 90.453C124.187 90.5254 124.33 90.6286 124.449 90.7567C124.568 90.8848 124.661 91.0352 124.722 91.1992C124.782 91.3632 124.81 91.5376 124.803 91.7124ZM126.035 121.193C126.025 121.455 125.937 121.709 125.784 121.921C125.63 122.134 125.417 122.296 125.171 122.387C124.925 122.479 124.657 122.496 124.402 122.435C124.147 122.375 123.915 122.24 123.736 122.048C123.557 121.856 123.439 121.616 123.397 121.357C123.354 121.098 123.39 120.832 123.498 120.593C123.607 120.354 123.784 120.153 124.007 120.015C124.23 119.876 124.488 119.807 124.751 119.815C124.926 119.821 125.098 119.861 125.257 119.934C125.416 120.006 125.56 120.109 125.679 120.237C125.798 120.365 125.891 120.516 125.952 120.68C126.013 120.844 126.041 121.018 126.035 121.193ZM127.313 149.191C127.303 149.453 127.216 149.707 127.062 149.919C126.908 150.132 126.695 150.294 126.449 150.386C126.203 150.477 125.936 150.494 125.68 150.433C125.425 150.373 125.193 150.238 125.015 150.046C124.836 149.854 124.718 149.614 124.675 149.355C124.633 149.096 124.668 148.83 124.777 148.591C124.885 148.352 125.062 148.151 125.285 148.013C125.508 147.874 125.767 147.805 126.029 147.813C126.204 147.819 126.376 147.859 126.536 147.932C126.695 148.004 126.838 148.107 126.958 148.235C127.077 148.363 127.17 148.514 127.231 148.678C127.292 148.842 127.32 149.016 127.313 149.191ZM129.322 182.064C129.312 182.326 129.225 182.579 129.071 182.792C128.917 183.005 128.703 183.167 128.457 183.258C128.211 183.35 127.943 183.366 127.688 183.306C127.433 183.245 127.201 183.11 127.022 182.918C126.844 182.726 126.726 182.485 126.684 182.226C126.642 181.966 126.678 181.701 126.787 181.462C126.896 181.223 127.073 181.022 127.296 180.884C127.519 180.746 127.778 180.677 128.041 180.686C128.216 180.691 128.388 180.731 128.547 180.804C128.706 180.876 128.85 180.979 128.969 181.107C129.088 181.235 129.181 181.386 129.241 181.55C129.302 181.714 129.329 181.889 129.322 182.064Z" fill="black"/>
<path d="M192.631 177.217C192.545 177.283 192.453 177.346 192.356 177.407C188.253 180.311 184.202 180.259 184.202 180.259L187.324 203.104H163.795C160.234 203.103 156.792 201.823 154.096 199.496C151.399 197.17 149.629 193.952 149.106 190.429L141.534 73.4658L160.415 77.0259C165.708 78.0206 170.555 80.4068 175.107 83.2835C194.067 95.2642 198.252 164.933 198.252 164.933C198.423 167.288 197.997 169.648 197.015 171.795C196.032 173.942 194.525 175.806 192.631 177.217Z" fill="black"/>
<path d="M166.118 159.463L163.418 182.645L134.386 185.593C133.935 184.397 133.805 183.103 134.009 181.84C134.648 177.545 136.91 173.163 135.246 168.81C134.604 167.101 133.226 165.616 131.463 165.173L166.118 159.463Z" fill="black"/>
<path d="M166.782 105.14C166.78 105.107 166.772 105.075 166.757 105.046C166.742 105.016 166.721 104.99 166.695 104.969C166.67 104.948 166.64 104.933 166.609 104.924C166.577 104.915 166.544 104.912 166.511 104.917C166.479 104.921 166.447 104.932 166.419 104.949C166.391 104.966 166.366 104.989 166.347 105.016C166.328 105.043 166.315 105.073 166.308 105.106C166.302 105.138 166.302 105.171 166.308 105.203L173.318 158.031L147.307 162.324V162.809L173.624 158.466C173.687 158.455 173.742 158.421 173.78 158.369C173.817 158.318 173.832 158.254 173.822 158.191L166.782 105.14ZM185.53 180.135L148.588 183.924V184.406L185.58 180.604C185.642 180.595 185.698 180.563 185.737 180.514C185.775 180.465 185.794 180.403 185.787 180.341C185.781 180.279 185.75 180.222 185.702 180.182C185.654 180.142 185.593 180.122 185.53 180.127V180.135Z" fill="black"/>
<path d="M134.017 181.802L131.537 181.27C131.537 181.27 129.584 183.282 126.026 181.841L123.695 183.039L122.147 185.431L119.893 189.203C119.834 189.303 119.754 189.389 119.658 189.454L118.587 189.415C118.463 189.311 118.371 189.174 118.323 189.02C118.274 188.866 118.27 188.701 118.311 188.545L119.386 184.26L121.127 181.405C121.14 181.385 121.149 181.362 121.152 181.338C121.155 181.313 121.153 181.289 121.145 181.266C121.138 181.243 121.126 181.221 121.109 181.204C121.093 181.186 121.072 181.172 121.05 181.163C121.016 181.149 120.979 181.147 120.944 181.156C120.909 181.164 120.877 181.184 120.854 181.212L118.515 184.125L117.333 188.401C117.273 188.597 117.143 188.763 116.968 188.868C116.793 188.974 116.585 189.011 116.385 188.972C116.206 188.933 116.046 188.833 115.932 188.69C115.817 188.547 115.756 188.369 115.757 188.186L115.737 183.127V182.981L117.942 180.157L118.697 179.19L117.302 180.912L115.746 182.841L115.418 183.246L114.547 186.729C114.492 186.958 114.353 187.158 114.158 187.29C113.963 187.422 113.725 187.476 113.492 187.442C113.259 187.407 113.047 187.286 112.899 187.103C112.75 186.92 112.676 186.688 112.69 186.453L113.007 181.086L111.122 183.367C111.005 183.511 110.836 183.603 110.651 183.624C110.466 183.644 110.281 183.59 110.136 183.475C110.009 183.371 109.921 183.227 109.887 183.066C109.854 182.906 109.876 182.739 109.951 182.593L112.34 178.008C112.608 177.485 113.027 177.054 113.541 176.771L118.485 174.015L128.333 170.813C129.628 170.386 132.937 169.711 135.403 169.234C136.764 173.439 134.637 177.661 134.017 181.802Z" fill="black"/>
<path d="M113.186 181.243H113.169C113.154 181.24 113.139 181.235 113.125 181.226C113.112 181.218 113.1 181.207 113.091 181.195C113.081 181.182 113.075 181.167 113.071 181.152C113.068 181.136 113.067 181.12 113.07 181.105L113.12 180.81C113.187 180.384 113.4 179.994 113.723 179.708L117.443 176.434C117.466 176.413 117.496 176.4 117.527 176.4C117.558 176.4 117.589 176.413 117.611 176.434C117.622 176.445 117.631 176.458 117.637 176.473C117.643 176.487 117.646 176.503 117.646 176.518C117.646 176.534 117.643 176.549 117.637 176.564C117.631 176.578 117.622 176.591 117.611 176.602L113.894 179.876C113.614 180.121 113.428 180.456 113.368 180.824L113.318 181.119C113.319 181.136 113.316 181.153 113.31 181.169C113.303 181.185 113.293 181.199 113.281 181.211C113.268 181.223 113.253 181.232 113.237 181.237C113.22 181.243 113.203 181.245 113.186 181.243ZM115.795 183.147H115.754C115.724 183.134 115.701 183.111 115.689 183.082C115.676 183.052 115.676 183.019 115.688 182.989L115.812 182.684C115.818 182.672 115.825 182.662 115.834 182.653L118.609 179.383C118.631 179.361 118.661 179.349 118.693 179.349C118.724 179.349 118.754 179.361 118.777 179.383C118.789 179.392 118.799 179.405 118.807 179.419C118.814 179.433 118.819 179.448 118.82 179.464C118.821 179.479 118.819 179.495 118.814 179.51C118.809 179.525 118.801 179.539 118.79 179.551L116.035 182.808L115.917 183.083C115.905 183.105 115.888 183.123 115.866 183.134C115.844 183.145 115.82 183.15 115.795 183.147Z" fill="black"/>
<path d="M23.5592 105.272C23.623 105.271 23.6847 105.249 23.7345 105.209C23.7843 105.169 23.8196 105.114 23.8348 105.052C23.8981 104.801 25.488 98.896 33.3218 99.8797C36.1737 100.232 38.4194 99.7419 40.0065 98.4248C41.2655 97.3478 42.0609 95.827 42.2274 94.1786C42.2312 94.1016 42.2043 94.0262 42.1527 93.9689C42.1011 93.9116 42.0289 93.877 41.9519 93.8728C41.9132 93.8685 41.8741 93.8724 41.8371 93.8844C41.8001 93.8963 41.766 93.9159 41.7371 93.9419C41.7082 93.9679 41.6852 93.9998 41.6695 94.0354C41.6538 94.0709 41.6458 94.1094 41.646 94.1483C41.4774 95.6356 40.7566 97.0054 39.6263 97.9867C38.1686 99.1935 36.0717 99.6399 33.3907 99.3065C25.0389 98.2815 23.2864 104.848 23.2699 104.914C23.2604 104.951 23.2583 104.989 23.2637 105.027C23.269 105.065 23.2818 105.101 23.3013 105.134C23.3208 105.167 23.3465 105.195 23.377 105.218C23.4076 105.241 23.4423 105.257 23.4793 105.267C23.5056 105.272 23.5325 105.274 23.5592 105.272ZM24.6145 97.9123C25.063 97.9118 25.4969 97.7528 25.8395 97.4634C26.1821 97.174 26.4113 96.7728 26.4867 96.3307C26.5622 95.8886 26.4789 95.4341 26.2516 95.0475C26.0243 94.6608 25.6677 94.367 25.2447 94.2179C24.8217 94.0688 24.3597 94.074 23.9402 94.2326C23.5207 94.3912 23.1708 94.693 22.9523 95.0847C22.7337 95.4763 22.6607 95.9326 22.7461 96.3728C22.8314 96.8131 23.0696 97.2091 23.4187 97.4907C23.7573 97.7639 24.1794 97.9127 24.6145 97.9123ZM24.6145 94.6884C24.9158 94.6884 25.2079 94.7925 25.4412 94.9832C25.6449 95.1476 25.7953 95.3687 25.8733 95.6186C25.9513 95.8685 25.9534 96.1359 25.8793 96.387C25.8052 96.638 25.6583 96.8614 25.4571 97.029C25.256 97.1965 25.0096 97.3005 24.7493 97.328C24.489 97.3554 24.2263 97.3049 23.9947 97.183C23.7631 97.0611 23.5728 96.8732 23.4481 96.6431C23.3233 96.4129 23.2696 96.151 23.2938 95.8903C23.318 95.6297 23.419 95.3821 23.584 95.1788C23.6922 95.0433 23.8264 94.9307 23.9788 94.8479C24.1312 94.7651 24.2987 94.7137 24.4713 94.6966L24.6145 94.6884ZM137.875 183.431C138.251 183.431 138.62 183.32 138.933 183.111C139.247 182.902 139.491 182.605 139.636 182.257C139.78 181.909 139.818 181.526 139.745 181.157C139.672 180.787 139.491 180.448 139.225 180.181C138.959 179.915 138.619 179.733 138.25 179.659C137.881 179.586 137.498 179.623 137.149 179.767C136.801 179.911 136.504 180.155 136.295 180.468C136.085 180.782 135.973 181.15 135.973 181.526C135.973 182.031 136.174 182.515 136.53 182.872C136.887 183.229 137.37 183.43 137.875 183.431ZM137.875 180.207C138.136 180.207 138.392 180.284 138.61 180.43C138.827 180.575 138.997 180.782 139.097 181.024C139.197 181.266 139.223 181.532 139.172 181.788C139.12 182.045 138.994 182.281 138.809 182.465C138.624 182.65 138.388 182.776 138.131 182.827C137.874 182.878 137.608 182.851 137.367 182.75C137.125 182.65 136.919 182.48 136.774 182.262C136.629 182.044 136.552 181.788 136.552 181.526C136.553 181.176 136.693 180.84 136.94 180.593C137.188 180.346 137.524 180.207 137.875 180.207Z" fill="black"/>
<path d="M131.463 165.173C131.463 165.173 130.14 168.229 130.396 170.292L135.4 169.226C135.4 169.226 134.604 165.925 131.463 165.173Z" fill="black"/>
<path d="M141.953 185.062C141.997 185.062 142.04 185.052 142.08 185.034C142.156 185 142.216 184.937 142.247 184.86C142.277 184.782 142.275 184.695 142.242 184.618C141.181 182.212 142.452 177.338 143.047 175.357C143.656 173.363 143.864 171.268 143.658 169.193C143.317 165.933 142.121 164.233 141.179 163.382C141.116 163.326 141.035 163.297 140.951 163.301C140.868 163.306 140.789 163.343 140.734 163.405C140.678 163.467 140.649 163.549 140.653 163.632C140.657 163.716 140.695 163.794 140.757 163.85C141.617 164.63 142.711 166.198 143.033 169.262C143.229 171.252 143.029 173.262 142.443 175.175C141.68 177.721 140.561 182.37 141.666 184.871C141.69 184.928 141.73 184.975 141.781 185.009C141.832 185.043 141.892 185.061 141.953 185.062Z" fill="black"/>
</g>
<path d="M109.644 61.2629L109.834 62.8652L115.144 72.5L125.021 84L141.644 70.5L143.123 62.3571L142.981 61L109.644 61.2629Z" fill="#FFF3CF"/>
<path d="M109.644 61.2539L109.831 62.8011C111.455 65.6276 113.855 67.9775 116.773 69.5981C119.691 71.2186 123.017 72.0483 126.392 71.9978C129.768 71.9474 133.065 71.0187 135.928 69.3117C138.792 67.6047 141.114 65.1841 142.644 62.3105L142.504 61L109.644 61.2539Z" fill="#FFB0A9"/>
<path d="M127.672 70.8885C132.684 70.3398 137.277 67.7922 140.439 63.8063C143.602 59.8204 145.075 54.7225 144.535 49.6341L142.449 30L104.644 34.1404L106.73 53.7707C106.997 56.2906 107.751 58.7323 108.949 60.9563C110.146 63.1803 111.763 65.1432 113.708 66.7327C115.653 68.3223 117.887 69.5074 120.283 70.2205C122.678 70.9336 125.189 71.1605 127.672 70.8885Z" fill="#FFF3CF"/>
<path d="M142.539 50.0711C143.112 53.361 143.394 56.0619 146.724 55.4951C150.054 54.9282 155.177 51.3122 154.599 48.0223C154.463 47.2397 154.172 46.4913 153.743 45.8198C153.314 45.1482 152.756 44.5667 152.099 44.1085C151.443 43.6502 150.702 43.3242 149.918 43.149C149.134 42.9738 148.322 42.9529 147.53 43.0874C146.738 43.2219 145.98 43.5093 145.301 43.9331C144.621 44.3568 144.032 44.9087 143.568 45.5572C143.105 46.2057 142.775 46.9381 142.597 47.7126C142.42 48.4871 142.399 49.2885 142.535 50.0711H142.539ZM109.878 52.9757C109.855 56.3101 110.024 59.0221 106.645 58.9999C103.266 58.9776 97.6144 56.236 97.6444 52.8942C97.6553 51.2906 98.3107 49.757 99.4662 48.6307C100.622 47.5045 102.183 46.8778 103.806 46.8886C105.429 46.8994 106.982 47.5468 108.122 48.6884C109.262 49.8299 109.896 51.3721 109.885 52.9757H109.878Z" fill="#FFF3CF"/>
<path d="M151.564 43.8582C151.564 43.8582 155.468 39.3054 155.64 33.0072C155.699 31.2292 155.117 29.4885 153.999 28.0967C152.881 26.7048 151.3 25.7528 149.538 25.4109L149.381 25.3854C149.381 25.3854 152.562 13.8509 140.784 6.94176C129.006 0.03266 119.638 13.7818 119.638 13.7818C119.073 12.9966 118.272 12.4085 117.349 12.1016C116.427 11.7946 115.43 11.7845 114.501 12.0727C114.501 12.0727 111.669 12.5781 111.797 15.8727C111.797 15.8727 106.954 10.669 98.8413 16.4872C88.8244 23.6763 99.8833 49 99.8833 49C99.8833 49 101.96 45.2364 106.906 47.04L105.567 37.7709C105.567 37.7709 115.07 42.3964 119.737 33.9636C119.737 33.9636 124.925 41.4254 131.912 39.0982C139.408 36.6 138.909 45.1273 144.482 44.1273C144.49 44.1309 147.858 41.5382 151.564 43.8582Z" fill="#464646"/>
<path d="M132.641 60C132.694 61.5014 132.141 62.9641 131.098 64.0804C130.056 65.1966 128.605 65.8796 127.051 65.9855C125.498 66.0915 123.962 65.6122 122.767 64.6485C121.572 63.6847 120.811 62.3117 120.644 60.818L132.641 60Z" fill="white"/>
<path d="M115.669 43.925C115.715 44.1231 115.826 44.2952 115.981 44.4072C116.135 44.5192 116.323 44.5629 116.505 44.5298L120.469 43.7857C120.744 43.7077 120.98 43.5133 121.126 43.2446C121.273 42.9758 121.317 42.6542 121.251 42.3494C121.212 42.1916 121.144 42.0445 121.051 41.917C120.958 41.7895 120.842 41.6845 120.711 41.6084C120.58 41.5323 120.436 41.4867 120.289 41.4746C120.141 41.4624 119.993 41.4839 119.853 41.5377L116.138 42.982C115.963 43.0461 115.817 43.1816 115.73 43.3606C115.643 43.5396 115.621 43.7487 115.669 43.9449V43.925ZM134.644 42.2578C134.645 42.4615 134.574 42.6576 134.447 42.8056C134.321 42.9537 134.147 43.0424 133.963 43.0536L129.953 43.3719C129.666 43.3719 129.391 43.2462 129.188 43.0223C128.986 42.7985 128.872 42.4948 128.872 42.1783C128.874 42.0141 128.906 41.8521 128.967 41.7025C129.029 41.5528 129.117 41.4188 129.227 41.3086C129.338 41.1984 129.467 41.1145 129.608 41.0622C129.749 41.0099 129.898 40.9903 130.046 41.0045L133.967 41.4302C134.148 41.4463 134.317 41.5371 134.44 41.6847C134.562 41.8322 134.63 42.0255 134.63 42.226L134.644 42.2578ZM132.472 50.1758C132.526 51.1387 132.046 51.9544 131.391 51.9982C130.735 52.0419 130.18 51.3018 130.126 50.339C130.072 49.3761 130.547 48.5644 131.207 48.5166C131.866 48.4689 132.417 49.2169 132.472 50.1758Z" fill="#464646"/>
<path d="M131.836 53.9906L134.266 53.8315C134.879 53.7925 135.478 53.6301 136.029 53.3536C136.58 53.0772 137.073 52.6922 137.478 52.2205C137.884 51.7489 138.195 51.2 138.394 50.6051C138.592 50.0102 138.674 49.3811 138.635 48.7538L138.404 45L126.644 45.7397L126.879 49.4971C126.948 50.6329 127.409 51.7066 128.178 52.5274C128.948 53.3481 129.977 53.8626 131.082 53.9795C131.333 54.0024 131.585 54.0061 131.836 53.9906ZM137.761 45.7508L137.949 48.8019C137.983 49.3379 137.914 49.8756 137.745 50.3842C137.576 50.8928 137.311 51.3623 136.965 51.7659C136.619 52.1695 136.199 52.4992 135.728 52.7363C135.258 52.9733 134.746 53.113 134.223 53.1474L131.793 53.3027C131.27 53.3383 130.746 53.2676 130.25 53.0948C129.754 52.9219 129.297 52.6503 128.904 52.2955C128.511 51.9408 128.19 51.5099 127.96 51.0278C127.731 50.5456 127.596 50.0216 127.565 49.486L127.377 46.4386L137.761 45.7508Z" fill="white"/>
<path d="M120.64 50.4297C120.689 51.255 120.283 51.957 119.724 51.9981C119.164 52.0392 118.694 51.3954 118.648 50.5701C118.602 49.7447 119.008 49.0393 119.565 49.0016C120.121 48.9639 120.588 49.6009 120.64 50.4297Z" fill="#464646"/>
<path d="M116.833 54.9884L119.263 54.8331C120.499 54.7485 121.652 54.1675 122.471 53.2167C123.29 52.2659 123.709 51.0222 123.636 49.7566L123.405 46L111.644 46.7617L111.875 50.5145C111.944 51.6513 112.408 52.7256 113.182 53.5437C113.955 54.3619 114.989 54.8703 116.097 54.9773C116.341 55.0032 116.588 55.007 116.833 54.9884ZM122.759 46.7506L122.947 49.8009C123.012 50.8808 122.656 51.943 121.958 52.7547C121.259 53.5664 120.274 54.0612 119.22 54.1306L116.79 54.2859C116.267 54.3215 115.743 54.2508 115.247 54.078C114.751 53.9052 114.293 53.6337 113.9 53.279C113.507 52.9244 113.187 52.4936 112.957 52.0115C112.727 51.5295 112.593 51.0056 112.561 50.4702L112.374 47.4198L122.759 46.7506Z" fill="white"/>
<path d="M127.307 56.9985H127.273L122.9 56.0616C122.856 56.0529 122.815 56.0337 122.778 56.0053C122.742 55.977 122.711 55.9402 122.689 55.8976C122.666 55.8558 122.652 55.8092 122.646 55.7608C122.641 55.7124 122.646 55.6633 122.659 55.6169L125.636 45.2387C125.665 45.1532 125.721 45.0825 125.795 45.0407C125.868 44.9988 125.953 44.9889 126.033 45.0127C126.073 45.026 126.109 45.0478 126.141 45.0769C126.173 45.106 126.199 45.1418 126.218 45.1822C126.237 45.2225 126.249 45.2667 126.252 45.3121C126.256 45.3575 126.251 45.4032 126.238 45.4465L123.367 55.4529L127.393 56.3168C127.473 56.3385 127.542 56.3924 127.588 56.468C127.634 56.5435 127.653 56.6352 127.641 56.7251C127.625 56.8081 127.583 56.882 127.521 56.9324C127.459 56.9829 127.383 57.0065 127.307 56.9985Z" fill="#EA4335"/>
<path d="M138.051 46.312L112.314 47.9986C112.232 48.0042 112.149 47.9929 112.071 47.9652C111.992 47.9375 111.92 47.894 111.858 47.8372C111.796 47.7804 111.745 47.7113 111.709 47.6341C111.672 47.5568 111.651 47.4728 111.646 47.387C111.64 47.3011 111.651 47.215 111.678 47.1336C111.704 47.0521 111.746 46.977 111.801 46.9124C111.856 46.8478 111.922 46.7951 111.996 46.7572C112.071 46.7194 112.151 46.6971 112.234 46.6918L137.974 45.0014C138.057 44.9957 138.14 45.0072 138.219 45.0352C138.297 45.0631 138.37 45.1069 138.432 45.1642C138.494 45.2214 138.545 45.2908 138.581 45.3685C138.617 45.4462 138.638 45.5306 138.643 45.6168C138.648 45.7029 138.637 45.7893 138.61 45.871C138.584 45.9527 138.541 46.0281 138.486 46.0927C138.431 46.1573 138.364 46.21 138.29 46.2476C138.215 46.2853 138.134 46.3071 138.051 46.312Z" fill="#EA4335"/>
<path d="M35.1323 83.8189C35.1323 83.8189 26.1275 79.0823 20.7213 92.2975L33.694 91.6913L35.1323 83.8189Z" fill="#464646"/>
<path d="M39.1001 94.9785L28.7258 81.0497L23.8349 74.0894L13.0886 66.7792C12.9722 66.6999 12.8412 66.6447 12.7031 66.6168C12.5651 66.5888 12.4229 66.5887 12.2848 66.6164C12.1468 66.6441 12.0156 66.6991 11.8991 66.7782C11.7825 66.8572 11.683 66.9588 11.6062 67.0768C11.474 67.2821 11.4169 67.5267 11.4446 67.7693C11.4722 68.0118 11.5828 68.2374 11.7577 68.4077L18.1449 74.6074L17.0427 74.263C15.9271 73.9143 14.7196 74.0131 13.6755 74.5386L8.48426 77.1287C8.36869 77.1868 8.26734 77.2696 8.18749 77.3714C8.10763 77.4731 8.05122 77.5913 8.02227 77.7173C7.99332 77.8434 7.99255 77.9743 8.02001 78.1007C8.04748 78.2271 8.10248 78.3459 8.18113 78.4486C8.28871 78.5883 8.43586 78.6925 8.60343 78.7475C8.771 78.8026 8.95125 78.8059 9.12075 78.7572L12.7469 77.7101L15.5878 76.8834L13.1079 77.2306L10.7575 80.0412C10.6437 80.1793 10.5886 80.3565 10.6041 80.5348C10.6195 80.713 10.7043 80.8781 10.8401 80.9946C10.9538 81.0922 11.0967 81.1493 11.2464 81.1568C11.3961 81.1643 11.544 81.1217 11.6668 81.0359L14.6978 78.95L18.1008 77.7762L23.1185 86.6736L25.8987 97.3041L39.1001 94.9785Z" fill="#FFF1C8"/>
<path d="M23.27 79.7323L13.4827 75.1142C13.2459 75.002 12.9799 74.9666 12.722 75.0131C12.4641 75.0595 12.2271 75.1854 12.0443 75.3732C11.9201 75.5002 11.8241 75.652 11.7628 75.8187C11.7014 75.9854 11.676 76.1632 11.6882 76.3405C11.7004 76.5177 11.75 76.6903 11.8337 76.847C11.9174 77.0037 12.0333 77.1409 12.1738 77.2497L18.8393 82.4079C18.8393 82.4079 19.7017 85.2653 23.1185 86.6733L25.6562 83.5128L23.27 79.7323Z" fill="#FFF1C8"/>
<path d="M23.27 79.953C23.3202 79.954 23.3691 79.9376 23.4086 79.9066C23.448 79.8757 23.4756 79.8321 23.4866 79.7832C23.4976 79.7342 23.4914 79.683 23.469 79.6382C23.4466 79.5933 23.4095 79.5575 23.3638 79.5369L13.5764 74.916C13.247 74.7591 12.8711 74.7296 12.5213 74.8333C12.1715 74.9371 11.8724 75.1666 11.6818 75.4777C11.4912 75.7888 11.4225 76.1595 11.4889 76.5182C11.5553 76.877 11.7522 77.1985 12.0416 77.4207L14.3947 79.2421C14.4401 79.2786 14.498 79.2957 14.5559 79.2895C14.6138 79.2833 14.6668 79.2543 14.7034 79.209C14.7399 79.1637 14.7569 79.1057 14.7507 79.0479C14.7445 78.99 14.7156 78.9369 14.6703 78.9004L12.3199 77.0791C12.2039 76.9888 12.1082 76.8752 12.039 76.7456C11.9698 76.6159 11.9286 76.4732 11.9182 76.3266C11.9078 76.18 11.9284 76.0329 11.9786 75.8948C12.0288 75.7567 12.1076 75.6307 12.2097 75.525C12.3617 75.3698 12.5582 75.2658 12.7719 75.2273C12.9857 75.1888 13.2062 75.2177 13.4028 75.3101L23.1902 79.931C23.2152 79.9433 23.2423 79.9508 23.27 79.953ZM18.539 77.1893C18.5799 77.1888 18.6198 77.1769 18.6544 77.155C18.6889 77.1331 18.7167 77.1021 18.7346 77.0653C19.4262 75.6545 18.2992 74.4669 18.2882 74.4559C18.248 74.4142 18.1929 74.3902 18.135 74.3892C18.0771 74.3882 18.0212 74.4102 17.9796 74.4504C17.9379 74.4906 17.914 74.5456 17.9129 74.6035C17.9119 74.6614 17.9339 74.7173 17.9741 74.759C18.0126 74.8003 18.8999 75.7399 18.3461 76.8752C18.3247 76.9251 18.3231 76.9813 18.3415 77.0324C18.3599 77.0836 18.3969 77.1258 18.4452 77.1507C18.4726 77.1715 18.5049 77.1847 18.539 77.1893Z" fill="#FF9A91"/>
<path d="M20.5282 90.6356L20.7624 90.2967C21.4978 89.3157 22.5407 88.6094 23.7245 88.2907C25.1353 87.9491 26.637 88.3706 28.1002 88.3403C29.1508 88.3197 30.185 88.0767 31.1349 87.6274C32.0848 87.1781 32.9287 86.5327 33.6111 85.7337C34.1377 85.0991 34.5685 84.3908 34.8896 83.6313L46.8951 97.6069L51.4444 102.895L57.2832 109.695L67.2332 100.572C69.3493 98.6127 71.4876 96.6646 73.6093 94.7192C73.6809 94.6503 73.7443 94.6007 73.8159 94.5318C78.8997 89.8613 83.5978 84.7913 89.2602 80.8014C91.0678 79.5091 92.9966 78.2967 94.9668 77.1587L94.6334 111.952L63.855 137.87C62.2602 138.968 60.5265 139.85 58.6995 140.493L58.6527 140.509C57.1348 141.066 55.5 141.226 53.903 140.974C52.3061 140.722 50.7997 140.067 49.5266 139.071L49.4412 139.002C48.1567 138.001 47.0097 136.834 46.0299 135.533L19.3489 92.7766C19.6627 92.0221 20.0582 91.3041 20.5282 90.6356Z" fill="#464646"/>
<path d="M98.3921 418.639C98.3921 418.639 102.622 418.044 104.928 423.001C107.234 427.958 111.932 428.3 111.932 428.3L114.175 428.708L114.06 398.53L94.0798 397.183L98.3921 418.639Z" fill="#FFF1C8"/>
<path d="M114.101 409.408L114.175 428.697L111.932 428.289C111.932 428.289 107.234 427.95 104.928 422.99C102.622 418.03 98.3921 418.628 98.3921 418.628L96.5376 409.397L114.101 409.408Z" fill="#E3E3E3"/>
<path d="M204.216 458.659C204.216 458.659 207.147 458.044 209.308 463.001C211.468 467.958 215.871 468.3 215.871 468.3H222.247L216.205 438.946L198.06 439.142L204.216 458.659Z" fill="#FFF1C8"/>
<path d="M218.508 450.139L222.247 468.3H215.871C215.871 468.3 211.702 467.853 209.308 463.001C207.147 458.62 204.216 458.659 204.216 458.659L201.389 450.139H218.508Z" fill="#E3E3E3"/>
<path d="M75.574 425.454C75.9295 425.296 76.2711 425.178 76.577 425.06C77.1963 424.839 77.8346 424.676 78.4838 424.572C82.478 424.083 86.4258 423.27 90.2881 422.141H90.3019C90.5774 422.048 90.8337 421.976 91.0762 421.866C92.1315 421.533 93.0574 421.199 93.884 420.88C94.1595 420.783 94.4186 420.676 94.6473 420.568C95.6117 420.166 96.3859 419.797 96.9591 419.485C97.2346 419.331 97.4661 419.21 97.659 419.094C98.1522 418.818 98.3947 418.628 98.3947 418.628C98.3947 418.628 102.627 418.033 104.925 422.987C105.409 424.042 106.079 425.001 106.904 425.817C108.422 427.305 110.874 427.746 112.69 426.592C113.387 426.186 113.91 425.539 114.161 424.773V432.822H70.617C70.617 428.584 73.3366 426.476 75.574 425.454Z" fill="#464646"/>
<path d="M93.333 426.597C93.2711 426.62 93.206 426.632 93.1401 426.633C93.0663 426.633 92.9937 426.615 92.9291 426.579C92.8646 426.543 92.8101 426.492 92.7709 426.429L90.291 422.139C90.5665 422.048 90.8255 421.971 91.0708 421.883L93.49 426.071C93.5146 426.116 93.5301 426.165 93.5355 426.216C93.5409 426.267 93.5362 426.318 93.5216 426.367C93.5069 426.416 93.4828 426.462 93.4504 426.501C93.418 426.541 93.3781 426.573 93.333 426.597ZM96.9426 425.366C96.8845 425.401 96.8177 425.419 96.7497 425.418C96.6758 425.418 96.6031 425.398 96.5385 425.362C96.474 425.326 96.4196 425.274 96.3805 425.211L93.8786 420.91C94.1541 420.808 94.4131 420.703 94.6446 420.602L97.1052 424.867C97.1291 424.91 97.1438 424.958 97.1485 425.007C97.1532 425.056 97.1478 425.105 97.1325 425.152C97.1173 425.199 97.0925 425.242 97.0599 425.278C97.0272 425.315 96.9873 425.345 96.9426 425.366ZM100.073 424.084C100.008 424.11 99.9388 424.124 99.8689 424.123C99.7982 424.125 99.7281 424.109 99.6657 424.076C99.6033 424.042 99.5508 423.993 99.5135 423.933L96.9564 419.499C97.232 419.345 97.4607 419.224 97.6535 419.103L100.238 423.561C100.263 423.606 100.279 423.655 100.284 423.706C100.289 423.758 100.284 423.809 100.268 423.858C100.253 423.907 100.228 423.953 100.194 423.992C100.16 424.03 100.119 424.062 100.073 424.084Z" fill="white"/>
<path d="M177.168 472.822H223.644L223.311 471.535L223.11 470.785L221.536 464.787C221.098 466.31 218.549 466.991 216.431 467.297C213.951 467.655 211.628 466.366 210.269 464.266C209.974 463.799 209.715 463.31 209.495 462.803C207.329 457.843 203.18 458.65 203.18 458.65C202.961 458.822 202.731 458.977 202.491 459.116L201.835 459.507C201.136 459.906 200.417 460.268 199.68 460.59C199.454 460.698 199.217 460.805 198.955 460.901C198.192 461.221 197.324 461.555 196.335 461.888C196.098 461.984 195.858 462.056 195.597 462.163C191.991 463.292 188.294 464.105 184.547 464.594C183.938 464.698 183.34 464.861 182.762 465.081C182.464 465.189 182.144 465.318 181.811 465.475C179.717 466.476 177.168 468.584 177.168 472.822Z" fill="#464646"/>
<path d="M198.446 466.597C198.389 466.62 198.328 466.632 198.267 466.633C198.196 466.633 198.127 466.614 198.066 466.578C198.005 466.542 197.954 466.491 197.919 466.429L195.602 462.139C195.858 462.048 196.101 461.971 196.332 461.883L198.6 466.071C198.646 466.162 198.656 466.267 198.627 466.365C198.599 466.463 198.534 466.546 198.446 466.597ZM201.827 465.366C201.774 465.401 201.711 465.419 201.648 465.418C201.577 465.417 201.508 465.397 201.448 465.361C201.387 465.325 201.337 465.273 201.303 465.211L198.958 460.896C199.214 460.794 199.457 460.69 199.675 460.588L201.981 464.853C202.006 464.897 202.021 464.945 202.027 464.995C202.033 465.044 202.028 465.095 202.014 465.143C201.999 465.19 201.975 465.235 201.943 465.273C201.911 465.312 201.871 465.343 201.827 465.366ZM204.761 464.084C204.7 464.11 204.635 464.124 204.568 464.123C204.501 464.124 204.434 464.107 204.376 464.073C204.317 464.04 204.268 463.991 204.235 463.933L201.84 459.499C202.097 459.345 202.314 459.224 202.493 459.103L204.916 463.561C204.963 463.651 204.974 463.756 204.945 463.854C204.916 463.952 204.85 464.034 204.761 464.084Z" fill="white"/>
<path d="M172.742 178.052L220.644 444H195.815L134.88 236.192L119.174 276.202C117.777 279.096 117.159 282.304 117.38 285.51L118.757 414.498H91.8753L80.0048 282.512C79.7085 280.082 79.8958 277.619 80.5559 275.262L97.2759 169.888L128.435 161.622L170.869 162.608L172.742 178.052Z" fill="#651FBE"/>
<path d="M133.948 235.311L135.337 235.008L130.89 214.458L122.207 207.709L121.336 208.831L129.611 215.262L133.948 235.311Z" fill="#3B6DBF"/>
<path d="M105.909 200.105H79.6136L85.874 83.3974C94.9863 76.3021 98.4499 74.6957 112.153 72.3756C112.877 72.2516 119.094 171.401 120.036 186.468H119.898C119.805 190.116 118.29 193.584 115.677 196.131C113.063 198.679 109.558 200.104 105.909 200.105Z" fill="#464646"/>
<path d="M118.865 169.679C118.995 170.322 119.04 170.98 119 171.635V171.652L120.022 186.468L149.191 187.44L145.764 135.087L145.747 134.85L145.711 134.299V134.053L145.681 133.621L145.656 133.254L145.637 132.943V132.69L145.618 132.362V132.196L145.593 131.805V131.687L145.54 130.921V130.788L141.592 70.4659L140.261 71.2153L125.803 79.3439L115.591 72.3286L113.644 70L112.142 72.3754L118.774 168.541L118.865 169.679Z" fill="white"/>
<path d="M131.096 183.745C131.027 183.741 130.961 183.712 130.911 183.665C130.86 183.617 130.829 183.552 130.821 183.483C130.724 182.64 130.702 181.83 130.683 181.064C130.683 180.607 130.658 180.135 130.631 179.653C130.562 178.171 130.463 176.661 130.355 175.203C130.248 173.746 130.157 172.227 130.08 170.739C130.063 170.282 130.055 169.822 130.049 169.378C130.056 168.017 129.97 166.657 129.79 165.308C129.644 164.206 129.121 163.313 128.567 162.366C128.437 162.145 128.291 161.914 128.173 161.682C128.03 161.477 127.935 161.243 127.896 160.996C127.857 160.749 127.875 160.497 127.947 160.258C128.095 159.838 128.298 159.44 128.55 159.073C128.778 158.75 128.963 158.4 129.101 158.031C129.286 157.384 128.685 156.998 127.881 156.563C127.603 156.426 127.358 156.233 127.16 155.996C126.962 155.758 126.816 155.482 126.732 155.185C126.674 154.935 126.67 154.677 126.721 154.426C126.771 154.175 126.875 153.938 127.024 153.73C127.036 153.711 127.051 153.693 127.068 153.678C127.165 153.562 127.232 153.425 127.264 153.278C127.294 153.16 127.337 153.045 127.393 152.936C127.404 152.915 127.418 152.894 127.434 152.876C128.119 152.175 128.678 151.363 129.088 150.473C128.404 135.786 127.614 120.89 126.85 106.485C126.382 97.6151 125.894 88.445 125.439 79.4071C125.435 79.3293 125.461 79.2529 125.513 79.1946C125.565 79.1362 125.637 79.1007 125.715 79.0957C125.793 79.0912 125.87 79.1175 125.929 79.1691C125.987 79.2207 126.023 79.2933 126.029 79.3713C126.487 88.4092 126.972 97.5793 127.443 106.449C128.206 120.877 128.997 135.795 129.683 150.509C129.686 150.552 129.678 150.596 129.661 150.636C129.229 151.603 128.628 152.486 127.886 153.242C127.86 153.309 127.837 153.377 127.817 153.446C127.762 153.682 127.649 153.9 127.487 154.08C127.39 154.217 127.323 154.373 127.29 154.538C127.257 154.702 127.26 154.872 127.297 155.036C127.363 155.25 127.473 155.448 127.62 155.618C127.766 155.788 127.946 155.925 128.148 156.022C128.881 156.422 129.989 157.023 129.655 158.191C129.506 158.61 129.303 159.008 129.052 159.376C128.825 159.698 128.64 160.048 128.501 160.417C128.454 160.577 128.444 160.745 128.473 160.908C128.503 161.072 128.57 161.227 128.669 161.36C128.796 161.586 128.931 161.814 129.06 162.038C129.611 162.991 130.198 163.966 130.358 165.195C130.545 166.565 130.637 167.946 130.634 169.329C130.634 169.772 130.647 170.23 130.661 170.679C130.73 172.156 130.832 173.666 130.937 175.123C131.041 176.581 131.135 178.096 131.212 179.584C131.24 180.072 131.251 180.549 131.265 181.009C131.284 181.805 131.303 182.557 131.397 183.376C131.401 183.416 131.398 183.456 131.386 183.495C131.375 183.533 131.355 183.569 131.33 183.6C131.304 183.631 131.272 183.656 131.236 183.675C131.201 183.693 131.161 183.704 131.121 183.707L131.096 183.745Z" fill="white"/>
<path d="M118.796 83.4026C118.749 83.4008 118.704 83.3882 118.662 83.3657C118.621 83.3432 118.586 83.3115 118.559 83.2731L111.976 73.5684C111.932 73.5029 111.915 73.4224 111.929 73.3444C111.944 73.2665 111.988 73.1974 112.054 73.1523C112.12 73.1086 112.2 73.0926 112.278 73.1075C112.356 73.1224 112.424 73.1672 112.47 73.2322L118.898 82.7137L125.599 79.1316C125.645 79.1052 125.696 79.0913 125.748 79.0913C125.8 79.0913 125.852 79.1052 125.897 79.1316L131.179 82.4189L141.691 75.2933C141.757 75.2491 141.838 75.2328 141.915 75.248C141.993 75.2633 142.062 75.3088 142.106 75.3746C142.15 75.4403 142.166 75.521 142.151 75.5988C142.136 75.6765 142.09 75.7451 142.025 75.7893L131.353 83.0223C131.304 83.0532 131.248 83.0696 131.19 83.0696C131.133 83.0696 131.076 83.0532 131.028 83.0223L125.729 79.7158L118.948 83.3668C118.902 83.393 118.849 83.4055 118.796 83.4026ZM124.803 88.7124C124.793 88.9747 124.706 89.2281 124.552 89.4407C124.398 89.6534 124.184 89.8156 123.938 89.907C123.692 89.9984 123.425 90.0148 123.169 89.9542C122.914 89.8936 122.682 89.7587 122.503 89.5664C122.325 89.3742 122.207 89.1333 122.165 88.8742C122.123 88.6151 122.159 88.3494 122.268 88.1106C122.377 87.8718 122.554 87.6706 122.777 87.5325C123 87.3944 123.259 87.3256 123.522 87.3346C123.697 87.3403 123.869 87.3805 124.028 87.453C124.187 87.5254 124.33 87.6286 124.449 87.7567C124.568 87.8848 124.661 88.0352 124.722 88.1992C124.782 88.3632 124.81 88.5376 124.803 88.7124ZM126.035 118.193C126.025 118.455 125.937 118.709 125.784 118.921C125.63 119.134 125.417 119.296 125.171 119.387C124.925 119.479 124.657 119.496 124.402 119.435C124.147 119.375 123.915 119.24 123.736 119.048C123.557 118.856 123.439 118.616 123.397 118.357C123.354 118.098 123.39 117.832 123.498 117.593C123.607 117.354 123.784 117.153 124.007 117.015C124.23 116.876 124.488 116.807 124.751 116.815C124.926 116.821 125.098 116.861 125.257 116.934C125.416 117.006 125.56 117.109 125.679 117.237C125.798 117.365 125.891 117.516 125.952 117.68C126.013 117.844 126.041 118.018 126.035 118.193ZM127.313 146.191C127.303 146.453 127.216 146.707 127.062 146.919C126.908 147.132 126.695 147.294 126.449 147.386C126.203 147.477 125.936 147.494 125.68 147.433C125.425 147.373 125.193 147.238 125.015 147.046C124.836 146.854 124.718 146.614 124.675 146.355C124.633 146.096 124.668 145.83 124.777 145.591C124.885 145.352 125.062 145.151 125.285 145.013C125.508 144.874 125.767 144.805 126.029 144.813C126.204 144.819 126.376 144.859 126.536 144.932C126.695 145.004 126.838 145.107 126.958 145.235C127.077 145.363 127.17 145.514 127.231 145.678C127.292 145.842 127.32 146.016 127.313 146.191ZM129.322 179.064C129.312 179.326 129.225 179.579 129.071 179.792C128.917 180.005 128.703 180.167 128.457 180.258C128.211 180.35 127.943 180.366 127.688 180.306C127.433 180.245 127.201 180.11 127.022 179.918C126.844 179.726 126.726 179.485 126.684 179.226C126.642 178.966 126.678 178.701 126.787 178.462C126.896 178.223 127.073 178.022 127.296 177.884C127.519 177.746 127.778 177.677 128.041 177.686C128.216 177.691 128.388 177.731 128.547 177.804C128.706 177.876 128.85 177.979 128.969 178.107C129.088 178.235 129.181 178.386 129.241 178.55C129.302 178.714 129.329 178.889 129.322 179.064Z" fill="white"/>
<path d="M192.631 174.217C192.545 174.283 192.453 174.346 192.356 174.407C188.253 177.311 184.202 177.259 184.202 177.259L187.324 200.104H163.795C160.234 200.103 156.792 198.823 154.096 196.496C151.399 194.17 149.629 190.952 149.106 187.429L141.534 70.4658L160.415 74.0259C165.708 75.0206 170.555 77.4068 175.107 80.2835C194.067 92.2642 198.252 161.933 198.252 161.933C198.423 164.288 197.997 166.648 197.015 168.795C196.032 170.942 194.525 172.806 192.631 174.217Z" fill="#464646"/>
<path d="M166.118 156.463L163.418 179.645L134.386 182.593C133.935 181.397 133.805 180.103 134.009 178.84C134.648 174.545 136.91 170.163 135.246 165.81C134.604 164.101 133.226 162.616 131.463 162.173L166.118 156.463Z" fill="#464646"/>
<path d="M166.782 102.14C166.78 102.107 166.772 102.075 166.757 102.046C166.742 102.016 166.721 101.99 166.695 101.969C166.67 101.948 166.64 101.933 166.609 101.924C166.577 101.915 166.544 101.912 166.511 101.917C166.479 101.921 166.447 101.932 166.419 101.949C166.391 101.966 166.366 101.989 166.347 102.016C166.328 102.043 166.315 102.073 166.308 102.106C166.302 102.138 166.302 102.171 166.308 102.203L173.318 155.031L147.307 159.324V159.809L173.624 155.466C173.687 155.455 173.742 155.421 173.78 155.369C173.817 155.318 173.832 155.254 173.822 155.191L166.782 102.14ZM185.53 177.135L148.588 180.924V181.406L185.58 177.604C185.642 177.595 185.698 177.563 185.737 177.514C185.775 177.465 185.794 177.403 185.787 177.341C185.781 177.279 185.75 177.222 185.702 177.182C185.654 177.142 185.593 177.122 185.53 177.127V177.135Z" fill="#1F1F1F"/>
<path d="M134.017 178.802L131.537 178.27C131.537 178.27 129.584 180.282 126.026 178.841L123.695 180.039L122.147 182.431L119.893 186.203C119.834 186.303 119.754 186.389 119.658 186.454L118.587 186.415C118.463 186.311 118.371 186.174 118.323 186.02C118.274 185.866 118.27 185.701 118.311 185.545L119.386 181.26L121.127 178.405C121.14 178.385 121.149 178.362 121.152 178.338C121.155 178.313 121.153 178.289 121.145 178.266C121.138 178.243 121.126 178.221 121.109 178.204C121.093 178.186 121.072 178.172 121.05 178.163C121.016 178.149 120.979 178.147 120.944 178.156C120.909 178.164 120.877 178.184 120.854 178.212L118.515 181.125L117.333 185.401C117.273 185.597 117.143 185.763 116.968 185.868C116.793 185.974 116.585 186.011 116.385 185.972C116.206 185.933 116.046 185.833 115.932 185.69C115.817 185.547 115.756 185.369 115.757 185.186L115.737 180.127V179.981L117.942 177.157L118.697 176.19L117.302 177.912L115.746 179.841L115.418 180.246L114.547 183.729C114.492 183.958 114.353 184.158 114.158 184.29C113.963 184.422 113.725 184.476 113.492 184.442C113.259 184.407 113.047 184.286 112.899 184.103C112.75 183.92 112.676 183.688 112.69 183.453L113.007 178.086L111.122 180.367C111.005 180.511 110.836 180.603 110.651 180.624C110.466 180.644 110.281 180.59 110.136 180.475C110.009 180.371 109.921 180.227 109.887 180.066C109.854 179.906 109.876 179.739 109.951 179.593L112.34 175.008C112.608 174.485 113.027 174.054 113.541 173.771L118.485 171.015L128.333 167.813C129.628 167.386 132.937 166.711 135.403 166.234C136.764 170.439 134.637 174.661 134.017 178.802Z" fill="#FFF1C8"/>
<path d="M113.186 178.243H113.169C113.154 178.24 113.139 178.235 113.125 178.226C113.112 178.218 113.1 178.207 113.091 178.195C113.081 178.182 113.075 178.167 113.071 178.152C113.068 178.136 113.067 178.12 113.07 178.105L113.12 177.81C113.187 177.384 113.4 176.994 113.723 176.708L117.443 173.434C117.466 173.413 117.496 173.4 117.527 173.4C117.558 173.4 117.589 173.413 117.611 173.434C117.622 173.445 117.631 173.458 117.637 173.473C117.643 173.487 117.646 173.503 117.646 173.518C117.646 173.534 117.643 173.549 117.637 173.564C117.631 173.578 117.622 173.591 117.611 173.602L113.894 176.876C113.614 177.121 113.428 177.456 113.368 177.824L113.318 178.119C113.319 178.136 113.316 178.153 113.31 178.169C113.303 178.185 113.293 178.199 113.281 178.211C113.268 178.223 113.253 178.232 113.237 178.237C113.22 178.243 113.203 178.245 113.186 178.243ZM115.795 180.147H115.754C115.724 180.134 115.701 180.111 115.689 180.082C115.676 180.052 115.676 180.019 115.688 179.989L115.812 179.684C115.818 179.672 115.825 179.662 115.834 179.653L118.609 176.383C118.631 176.361 118.661 176.349 118.693 176.349C118.724 176.349 118.754 176.361 118.777 176.383C118.789 176.392 118.799 176.405 118.807 176.419C118.814 176.433 118.819 176.448 118.82 176.464C118.821 176.479 118.819 176.495 118.814 176.51C118.809 176.525 118.801 176.539 118.79 176.551L116.035 179.808L115.917 180.083C115.905 180.105 115.888 180.123 115.866 180.134C115.844 180.145 115.82 180.15 115.795 180.147Z" fill="#EA4335"/>
<path d="M23.5592 102.272C23.623 102.271 23.6847 102.249 23.7345 102.209C23.7843 102.169 23.8196 102.114 23.8348 102.052C23.8981 101.801 25.488 95.896 33.3218 96.8797C36.1737 97.2324 38.4194 96.7419 40.0065 95.4248C41.2655 94.3478 42.0609 92.827 42.2274 91.1786C42.2312 91.1016 42.2043 91.0262 42.1527 90.9689C42.1011 90.9116 42.0289 90.877 41.9519 90.8728C41.9132 90.8685 41.8741 90.8724 41.8371 90.8844C41.8001 90.8963 41.766 90.9159 41.7371 90.9419C41.7082 90.9679 41.6852 90.9998 41.6695 91.0354C41.6538 91.0709 41.6458 91.1094 41.646 91.1483C41.4774 92.6356 40.7566 94.0054 39.6263 94.9867C38.1686 96.1935 36.0717 96.6399 33.3907 96.3065C25.0389 95.2815 23.2864 101.848 23.2699 101.914C23.2604 101.951 23.2583 101.989 23.2637 102.027C23.269 102.065 23.2818 102.101 23.3013 102.134C23.3208 102.167 23.3465 102.195 23.377 102.218C23.4076 102.241 23.4423 102.257 23.4793 102.267C23.5056 102.272 23.5325 102.274 23.5592 102.272ZM24.6145 94.9123C25.063 94.9118 25.4969 94.7528 25.8395 94.4634C26.1821 94.174 26.4113 93.7728 26.4867 93.3307C26.5622 92.8886 26.4789 92.4341 26.2516 92.0475C26.0243 91.6608 25.6677 91.367 25.2447 91.2179C24.8217 91.0688 24.3597 91.074 23.9402 91.2326C23.5207 91.3912 23.1708 91.693 22.9523 92.0847C22.7337 92.4763 22.6607 92.9326 22.7461 93.3728C22.8314 93.8131 23.0696 94.2091 23.4187 94.4907C23.7573 94.7639 24.1794 94.9127 24.6145 94.9123ZM24.6145 91.6884C24.9158 91.6884 25.2079 91.7925 25.4412 91.9832C25.6449 92.1476 25.7953 92.3687 25.8733 92.6186C25.9513 92.8685 25.9534 93.1359 25.8793 93.387C25.8052 93.638 25.6583 93.8614 25.4571 94.029C25.256 94.1965 25.0096 94.3005 24.7493 94.328C24.489 94.3554 24.2263 94.3049 23.9947 94.183C23.7631 94.0611 23.5728 93.8732 23.4481 93.6431C23.3233 93.4129 23.2696 93.151 23.2938 92.8903C23.318 92.6297 23.419 92.3821 23.584 92.1788C23.6922 92.0433 23.8264 91.9307 23.9788 91.8479C24.1312 91.7651 24.2987 91.7137 24.4713 91.6966L24.6145 91.6884ZM137.875 180.431C138.251 180.431 138.62 180.32 138.933 180.111C139.247 179.902 139.491 179.605 139.636 179.257C139.78 178.909 139.818 178.526 139.745 178.157C139.672 177.787 139.491 177.448 139.225 177.181C138.959 176.915 138.619 176.733 138.25 176.659C137.881 176.586 137.498 176.623 137.149 176.767C136.801 176.911 136.504 177.155 136.295 177.468C136.085 177.782 135.973 178.15 135.973 178.526C135.973 179.031 136.174 179.515 136.53 179.872C136.887 180.229 137.37 180.43 137.875 180.431ZM137.875 177.207C138.136 177.207 138.392 177.284 138.61 177.43C138.827 177.575 138.997 177.782 139.097 178.024C139.197 178.266 139.223 178.532 139.172 178.788C139.12 179.045 138.994 179.281 138.809 179.465C138.624 179.65 138.388 179.776 138.131 179.827C137.874 179.878 137.608 179.851 137.367 179.75C137.125 179.65 136.919 179.48 136.774 179.262C136.629 179.044 136.552 178.788 136.552 178.526C136.553 178.176 136.693 177.84 136.94 177.593C137.188 177.346 137.524 177.207 137.875 177.207Z" fill="white"/>
<path d="M131.463 162.173C131.463 162.173 130.14 165.229 130.396 167.292L135.4 166.226C135.4 166.226 134.604 162.925 131.463 162.173Z" fill="#464646"/>
<path d="M141.953 182.062C141.997 182.062 142.04 182.052 142.08 182.034C142.156 182 142.216 181.937 142.247 181.86C142.277 181.782 142.275 181.695 142.242 181.618C141.181 179.212 142.452 174.338 143.047 172.357C143.656 170.363 143.864 168.268 143.658 166.193C143.317 162.933 142.121 161.233 141.179 160.382C141.116 160.326 141.035 160.297 140.951 160.301C140.868 160.306 140.789 160.343 140.734 160.405C140.678 160.467 140.649 160.549 140.653 160.632C140.657 160.716 140.695 160.794 140.757 160.85C141.617 161.63 142.711 163.198 143.033 166.262C143.229 168.252 143.029 170.262 142.443 172.175C141.68 174.721 140.561 179.37 141.666 181.871C141.69 181.928 141.73 181.975 141.781 182.009C141.832 182.043 141.892 182.061 141.953 182.062Z" fill="white"/>
<defs>
<filter id="filter0_f_84_597" x="0.5" y="0.5" width="230.644" height="482.822" filterUnits="userSpaceOnUse" color-interpolation-filters="sRGB">
<feFlood flood-opacity="0" result="BackgroundImageFix"/>
<feBlend mode="normal" in="SourceGraphic" in2="BackgroundImageFix" result="shape"/>
<feGaussianBlur stdDeviation="3.75" result="effect1_foregroundBlur_84_597"/>
</filter>
</defs>
</svg>
