<svg class="man-3-svg" viewBox="0 0 336 680" fill="none" xmlns="http://www.w3.org/2000/svg">
<g opacity="0.47" filter="url(#filter0_f_88_17)">
<path d="M150.871 664.659C149.913 666.034 150.488 669.7 150.488 669.7C150.488 669.7 167.151 672.336 172.61 671.075C174.046 670.732 176.441 669.357 178.643 667.867C179.026 667.638 179.697 666.148 180.08 665.805C180.75 665.346 181.133 666.148 181.708 665.69C183.24 664.659 184.293 663.742 184.293 663.628C185.921 654.576 184.102 650.794 184.102 650.794C184.102 650.794 170.024 644.722 167.247 648.617C160.735 657.784 152.978 661.68 150.871 664.659ZM238.018 653.43L239.646 668.325L252.383 669.127C252.383 669.127 253.149 667.065 254.299 667.18C255.16 667.294 256.214 669.357 257.459 669.471C260.14 669.7 263.109 669.815 264.258 669.929C266.652 670.044 289.732 671.648 289.732 671.648C289.732 671.648 290.498 668.554 289.828 667.409C289.54 666.836 287.434 665.69 285.997 665.117C279.581 662.482 261.098 654.346 258.225 646.784C254.777 637.618 238.018 653.43 238.018 653.43Z" fill="#4B454D"/>
<path d="M211.299 282.762L165.523 281.502C165.523 281.502 158.915 314.845 158.34 343.032C157.478 383.135 156.904 422.78 157.574 447.415C156.808 451.31 156.521 455.321 156.712 459.217C158.149 488.893 164.374 646.441 164.374 646.441C164.374 646.441 184.197 649.191 184.484 646.327C189.177 599.12 194.827 522.923 194.923 493.934C195.019 484.883 195.306 475.831 195.689 467.352C198.849 452.8 211.299 282.762 211.299 282.762Z" fill="#4B454D"/>
<path d="M264.641 651.712L250.181 477.549C250.181 477.435 250.276 477.435 250.276 477.435L244.722 305.22L183.336 300.293C183.336 300.293 187.166 310.834 195.402 356.208C195.402 356.208 205.266 448.102 215.705 495.538C215.896 496.57 216.184 497.372 216.375 498.288C219.44 545.61 236.773 660.191 236.773 660.191L264.641 651.712Z" fill="#4B454D"/>
<path d="M79.4292 186.056C79.4292 186.056 60.8506 168.525 34.3233 132.203C25.3213 119.942 29.7265 133.234 31.2588 148.588C32.7911 163.941 57.786 194.42 85.1752 203.013C112.564 211.607 79.4292 186.056 79.4292 186.056Z" fill="#4B454D"/>
<path d="M35.8547 163.713L27.0442 149.963L41.888 137.359L50.6984 151.109L35.8547 163.713Z" fill="#4B454D"/>
<path d="M190.517 142.859C190.517 142.859 192.912 155.807 151.732 208.056C128.748 237.274 116.011 251.367 104.615 244.836C81.3439 231.545 26.374 169.327 26.374 169.327L47.9214 139.995C47.9214 139.995 100.018 190.067 108.063 195.337C111.414 197.514 132.196 161.994 153.36 126.016C157.191 119.37 187.74 139.307 190.517 142.859Z" fill="#4B454D"/>
<path d="M216.09 91.2919L217.193 93.9002L214.435 111.507C214.435 111.507 208.789 119 201.753 120.636C195.939 121.988 187.967 121.94 187.967 121.94L179.696 92.5961L181.901 86.0752L216.09 91.2919Z" fill="#4B454D"/>
<path d="M176.632 357.469L176.058 147.442L185.826 112.839C173.281 114.672 160.64 116.162 151.637 129.338L149.722 337.302L176.632 357.469ZM215.322 111.808L225.665 134.495L223.654 276.918L231.89 358.843L257.747 346.698L262.439 153.515L254.395 121.547L215.322 111.808Z" fill="#4B454D"/>
<path d="M172.419 236.93L161.98 154.202L168.971 148.13L161.406 140.796L168.013 116.849L186.688 109.745L178.356 147.442L174.238 281.043L172.419 236.93Z" fill="#4B454D"/>
<path d="M215.129 107.568C214.267 110.662 224.61 135.87 224.61 135.87L223.748 268.21L242.327 155.578L236.485 146.87L242.901 139.536L231.218 113.297L215.129 107.568Z" fill="#4B454D"/>
<path d="M222.081 86.8391L222.032 89.4228C220.278 94.3186 217.456 98.5333 213.87 101.613C210.284 104.693 206.07 106.522 201.682 106.902C197.294 107.282 192.898 106.199 188.967 103.77C185.036 101.341 181.719 97.6585 179.373 93.1178L179.391 90.9319L222.081 86.8391Z" fill="#4B454D"/>
<path d="M199.618 104.341C193.226 104.211 187.143 101.112 182.709 95.7259C178.275 90.3394 175.852 83.1067 175.973 75.6186L176.443 46.7253L224.656 47.7076L224.186 76.5955C224.126 80.3037 223.442 83.963 222.175 87.3643C220.908 90.7656 219.081 93.8423 216.8 96.4188C214.519 98.9953 211.827 101.021 208.879 102.38C205.931 103.74 202.784 104.406 199.618 104.341Z" fill="#4B454D"/>
<path d="M179.872 76.419C179.528 81.3017 179.48 85.2853 175.31 84.8914C171.14 84.4975 164.422 79.8817 164.77 74.9986C164.852 73.8372 165.128 72.7055 165.583 71.6682C166.037 70.6309 166.662 69.7082 167.421 68.9529C168.18 68.1976 169.058 67.6244 170.006 67.2661C170.954 66.9078 171.952 66.7714 172.944 66.8646C173.936 66.9578 174.902 67.2789 175.787 67.8095C176.672 68.3401 177.459 69.0698 178.103 69.957C178.747 70.8441 179.235 71.8714 179.539 72.9801C179.843 74.0888 179.958 75.2571 179.877 76.4186L179.872 76.419ZM220.476 76.4025C220.872 81.2723 220.964 85.2575 225.129 84.7842C229.294 84.3108 235.962 79.567 235.555 74.6874C235.364 72.3454 234.387 70.1897 232.837 68.6946C231.287 67.1994 229.293 66.4873 227.292 66.7149C225.291 66.9425 223.448 68.0911 222.168 69.9081C220.888 71.725 220.276 74.0615 220.467 76.4035L220.476 76.4025Z" fill="#4B454D"/>
<path d="M167.208 68.7046C167.208 68.7046 161.769 62.3704 160.834 52.9105C160.557 50.2413 161.092 47.5428 162.343 45.2981C163.594 43.0535 165.479 41.4092 167.66 40.6595L167.856 40.6001C167.856 40.6001 162.533 23.6574 176.592 11.6842C190.652 -0.288918 204.026 19.1632 204.026 19.1632C204.649 17.9057 205.592 16.9135 206.72 16.3283C207.848 15.7431 209.103 15.595 210.307 15.905C210.307 15.905 213.935 16.2883 214.148 21.2659C214.148 21.2659 219.661 12.7852 230.55 20.4636C243.995 29.9521 232.939 69.5551 232.939 69.5551C232.939 69.5551 229.893 64.1653 223.863 67.5405L224.496 53.406C224.496 53.406 213.043 61.6374 206.2 49.5631C206.2 49.5631 200.51 61.4897 191.438 58.9172C181.705 56.1554 183.305 68.9279 176.165 68.1655C176.157 68.1719 171.615 64.7173 167.208 68.7046Z" fill="#4B454D"/>
<path d="M193.493 89.44C193.578 91.3969 194.38 93.2273 195.73 94.5461C197.08 95.865 198.873 96.5695 200.733 96.5115C202.592 96.4535 204.373 95.6376 205.7 94.2353C207.027 92.833 207.798 90.9536 207.849 88.9924L193.493 89.44Z" fill="#4B454D"/>
<path d="M212.48 62.8039C212.443 63.0907 212.32 63.3495 212.135 63.5291C211.95 63.7086 211.717 63.7958 211.481 63.7734L206.36 63.2523C206.002 63.1788 205.68 62.9351 205.466 62.5739C205.251 62.2127 205.159 61.763 205.211 61.322C205.244 61.0932 205.315 60.8755 205.42 60.6824C205.524 60.4893 205.66 60.3249 205.818 60.1994C205.977 60.0739 206.155 59.99 206.341 59.9529C206.528 59.9158 206.719 59.9263 206.903 59.9837L211.783 61.5306C212.012 61.5979 212.212 61.7702 212.342 62.0122C212.472 62.2542 212.522 62.5475 212.482 62.832L212.48 62.8039ZM188.166 62.9944C188.188 63.2831 188.298 63.5514 188.475 63.7441C188.652 63.9369 188.882 64.0393 189.118 64.0304L194.253 63.9419C194.618 63.9033 194.954 63.6881 195.188 63.3436C195.422 62.9991 195.534 62.5536 195.5 62.1049C195.48 61.8726 195.421 61.6474 195.327 61.4436C195.233 61.2398 195.106 61.0617 194.954 60.9204C194.802 60.7791 194.628 60.6777 194.444 60.6225C194.259 60.5673 194.067 60.5596 193.88 60.5997L188.939 61.7305C188.711 61.7775 188.506 61.929 188.365 62.1546C188.225 62.3802 188.159 62.6633 188.181 62.9473L188.166 62.9944ZM191.779 73.9224C191.813 75.2942 192.51 76.3856 193.349 76.3593C194.188 76.3331 194.814 75.2097 194.78 73.838C194.745 72.4662 194.053 71.38 193.209 71.401C192.366 71.4221 191.745 72.5563 191.779 73.9224Z" fill="#4B454D"/>
<path d="M192.737 80.3404L189.606 80.4403C188.816 80.4669 188.031 80.3137 187.294 79.9895C186.558 79.6652 185.885 79.1763 185.313 78.5506C184.742 77.9249 184.283 77.1747 183.964 76.3431C183.645 75.5114 183.471 74.6145 183.453 73.7037L183.339 68.2545L198.49 67.7279L198.599 73.1829C198.634 74.8316 198.162 76.4437 197.265 77.7326C196.369 79.0216 195.106 79.9037 193.703 80.2221C193.384 80.2892 193.061 80.3288 192.737 80.3404ZM184.244 69.2509L184.337 73.6801C184.351 74.4584 184.499 75.2251 184.771 75.9363C185.043 76.6475 185.433 77.2892 185.921 77.8248C186.408 78.3604 186.983 78.7794 187.612 79.0577C188.241 79.3361 188.912 79.4683 189.586 79.4469L192.717 79.3417C193.391 79.3222 194.055 79.1491 194.672 78.8324C195.289 78.5157 195.845 78.0617 196.31 77.4964C196.775 76.9311 197.139 76.2658 197.381 75.5387C197.622 74.8116 197.737 74.0372 197.719 73.2599L197.627 68.8361L184.244 69.2509Z" fill="#4B454D"/>
<path d="M206.686 73.5194C206.714 74.9574 207.476 76.1025 208.402 76.0762C209.329 76.0499 210.02 74.8527 209.988 73.4153C209.955 71.9778 209.193 70.8268 208.272 70.8585C207.35 70.8902 206.663 72.0749 206.686 73.5194Z" fill="#4B454D"/>
<path d="M211.987 79.6109L209.078 79.6926C207.599 79.726 206.164 79.0326 205.085 77.7633C204.007 76.4941 203.372 74.7519 203.32 72.916L203.185 67.465L217.264 67.0839L217.399 72.5295C217.441 74.179 217.007 75.7877 216.175 77.0661C215.343 78.3444 214.169 79.2082 212.863 79.5021C212.574 79.5703 212.281 79.6067 211.987 79.6109ZM204.036 68.467L204.146 72.8933C204.186 74.46 204.725 75.9484 205.645 77.032C206.565 78.1156 207.791 78.7058 209.053 78.6732L211.962 78.5915C212.588 78.577 213.204 78.409 213.776 78.0972C214.347 77.7853 214.862 77.3358 215.291 76.7744C215.72 76.2131 216.054 75.551 216.275 74.8263C216.496 74.1016 216.599 73.3286 216.577 72.5519L216.468 68.1256L204.036 68.467Z" fill="#4B454D"/>
<path d="M199.034 83.6139L199.077 83.6093L204.734 81.5798C204.791 81.5604 204.844 81.5255 204.889 81.4774C204.934 81.4294 204.97 81.3694 204.994 81.3017C205.02 81.2352 205.033 81.1625 205.035 81.0884C205.036 81.0144 205.024 80.9406 205.001 80.8721L199.887 65.5593C199.84 65.4336 199.757 65.3344 199.656 65.2813C199.554 65.2281 199.441 65.2248 199.338 65.2721C199.288 65.2977 199.242 65.3359 199.203 65.3844C199.165 65.433 199.134 65.4909 199.114 65.5547C199.093 65.6186 199.083 65.6872 199.084 65.7564C199.084 65.8257 199.096 65.8942 199.118 65.9581L204.05 80.7222L198.842 82.5929C198.739 82.6369 198.653 82.7284 198.601 82.8492C198.549 82.9701 198.535 83.1117 198.562 83.2462C198.591 83.3699 198.656 83.4759 198.743 83.5438C198.83 83.6117 198.934 83.6367 199.034 83.6139Z" fill="#4B454D"/>
<path d="M183.876 69.1798L217.603 68.5567C217.711 68.5551 217.817 68.5241 217.916 68.4653C218.014 68.4065 218.103 68.3212 218.176 68.2142C218.25 68.1073 218.307 67.9807 218.344 67.8419C218.381 67.7031 218.398 67.5547 218.393 67.4053C218.389 67.2559 218.364 67.1082 218.318 66.9709C218.273 66.8335 218.209 66.709 218.129 66.6047C218.049 66.5003 217.956 66.4182 217.854 66.3628C217.753 66.3075 217.644 66.2802 217.536 66.2823L183.804 66.8994C183.695 66.901 183.589 66.9323 183.49 66.9915C183.391 67.0508 183.303 67.1367 183.229 67.2443C183.156 67.352 183.099 67.4793 183.062 67.6188C183.025 67.7584 183.009 67.9074 183.014 68.0574C183.018 68.2073 183.044 68.3554 183.09 68.4932C183.135 68.631 183.2 68.7557 183.28 68.86C183.36 68.9644 183.454 69.0464 183.556 69.1013C183.659 69.1562 183.767 69.1829 183.876 69.1798Z" fill="#4B454D"/>
</g>
<path d="M304.973 365.892L311.995 351.49L312.341 349.105L309.153 347.216L306.862 349.177L302.327 340.396L289.09 345.481L281.227 346.062L300.2 365.418L304.973 365.892Z" fill="#FFEACA"/>
<path d="M288.197 262.043L280.825 344.864C280.825 344.864 287.167 352.262 287.853 345.755C287.938 344.972 284.977 344.605 286.557 341.451C292.878 328.837 304.071 306.582 307.114 291.371C311.157 271.386 302.826 250.402 302.826 250.402L288.197 262.043Z" fill="#FFEACA"/>
<path d="M298.27 329.795L280.892 325.062L284.006 304.598L301.34 309.226L298.27 329.795Z" fill="white"/>
<path d="M241.466 172.219L281.497 234.895V309.089C281.497 309.089 298.351 327.88 301.991 323.182C312.924 272.572 316.643 232.489 316.643 232.489L265.408 132.345C265.408 132.345 259.566 116.533 247.883 119.168C224.324 124.439 238.593 165.459 241.466 172.219Z" fill="#1E1D1E"/>
<path d="M187.641 651.156L186.013 666.052L173.276 666.854C173.276 666.854 172.51 664.792 171.361 664.906C170.499 665.021 169.446 667.083 168.201 667.198C165.519 667.427 162.551 667.541 161.401 667.656C159.007 667.771 135.928 669.375 135.928 669.375C135.928 669.375 135.161 666.281 135.832 665.135C136.119 664.562 138.226 663.417 139.662 662.844C146.079 660.208 164.562 652.073 167.435 644.511C170.882 635.344 187.641 651.156 187.641 651.156Z" fill="#010101"/>
<path d="M263.694 646.869L263.694 668.978L250.957 669.78C250.957 669.78 250.191 667.717 249.042 667.832C248.18 667.946 247.126 670.009 245.881 670.123C243.2 670.353 240.231 670.467 239.082 670.582C236.688 670.696 213.608 672.3 213.608 672.3C213.608 672.3 212.842 669.207 213.512 668.061C213.8 667.488 215.906 666.342 217.343 665.769C223.759 663.134 244.19 658.719 247.063 651.156C250.511 641.99 263.694 646.869 263.694 646.869Z" fill="#010101"/>
<path d="M211.299 280.154L165.523 278.894C165.523 278.894 158.915 312.237 158.34 340.423C157.478 380.527 156.904 420.171 157.574 444.806C156.808 448.702 156.521 452.712 156.712 456.608C158.149 486.285 164.374 643.833 164.374 643.833C164.374 643.833 184.197 646.583 184.484 643.718C189.177 596.511 194.827 520.315 194.923 491.326C195.019 482.274 195.306 473.222 195.689 464.743C198.849 450.192 211.299 280.154 211.299 280.154Z" fill="#651FBE"/>
<path d="M264.642 649.103L250.181 474.941C250.181 474.826 250.277 474.826 250.277 474.826L244.722 302.612L183.336 297.685C183.336 297.685 187.167 308.226 195.403 353.6C195.403 353.6 205.267 445.494 215.705 492.93C215.897 493.961 216.184 494.763 216.376 495.68C219.44 543.002 236.774 657.582 236.774 657.582L264.642 649.103Z" fill="#651FBE"/>
<path d="M79.4293 183.447C79.4293 183.447 60.8507 165.916 34.3235 129.594C25.3214 117.334 25.1263 128.757 26.6585 144.111C28.1908 159.464 57.7862 191.812 85.1753 200.405C112.564 208.999 79.4293 183.447 79.4293 183.447Z" fill="#FFEACA"/>
<path d="M31.6146 136.627C31.6146 136.627 40.3064 122.051 39.5508 117.496C38.7952 112.941 35.0399 96.773 35.0399 96.773L33.7355 92.7672C33.7355 92.7672 29.1925 92.7937 31.7596 103.672C34.3266 114.551 30.6645 110.532 30.6645 110.532L23.7747 103.672L20.7893 101.073L18.6547 98.6014C18.6547 98.6014 17.2683 95.77 16.407 95.502C13.9612 94.8611 14.1597 97.5628 14.1597 97.5628L19.9839 107.208L13.6164 103.672C13.6164 103.672 11.6152 102.209 10.5176 103.308C9.4541 104.297 10.007 104.949 10.007 104.949L14.4883 115.458L10.3312 113.462C10.3312 113.462 7.91995 112.5 6.77029 113.462C5.58659 114.534 7.09558 117.375 7.09558 117.375L28.2358 139.896L31.6146 136.627Z" fill="#FFEACA"/>
<path d="M35.8552 161.105L27.0447 147.355L41.8885 134.751L50.6989 148.501L35.8552 161.105Z" fill="white"/>
<path d="M190.517 140.251C190.517 140.251 192.912 153.199 151.732 205.447C128.748 234.665 116.011 248.759 104.615 242.228C81.3439 228.936 26.374 166.719 26.374 166.719L47.9214 137.386C47.9214 137.386 100.018 187.458 108.063 192.729C111.414 194.906 132.196 159.386 153.36 123.408C157.191 116.762 187.74 136.699 190.517 140.251Z" fill="#1E1D1E"/>
<path d="M216.09 88.6835L217.193 91.2918L214.436 108.898C214.436 108.898 208.79 116.391 201.753 118.027C195.939 119.379 187.967 119.332 187.967 119.332L179.696 89.9877L181.902 83.4668L216.09 88.6835Z" fill="#FFF3CF"/>
<path d="M192.94 352.126L228.153 249.749L209.895 142.806L185.826 110.23C173.281 112.064 160.64 113.553 151.637 126.73L149.722 334.694L192.94 352.126ZM215.322 109.199L185.826 110.23L197.505 269.311L231.89 356.235L257.747 344.09L262.439 150.907L254.395 118.939L215.322 109.199Z" fill="#1E1D1E"/>
<path d="M199.618 101.733C193.226 101.603 187.143 98.504 182.709 93.1175C178.275 87.731 175.852 80.4983 175.973 73.0102L176.443 44.1169L224.656 45.0992L224.186 73.9871C224.126 77.6953 223.442 81.3546 222.175 84.7559C220.908 88.1572 219.081 91.2339 216.8 93.8104C214.519 96.3869 211.827 98.4127 208.879 99.772C205.931 101.131 202.784 101.798 199.618 101.733Z" fill="#FFF3CF"/>
<path d="M179.872 73.8106C179.528 78.6933 179.48 82.6769 175.31 82.283C171.14 81.8892 164.422 77.2733 164.77 72.3902C164.852 71.2288 165.128 70.0971 165.583 69.0598C166.037 68.0225 166.662 67.0998 167.421 66.3445C168.18 65.5892 169.058 65.016 170.006 64.6577C170.954 64.2994 171.952 64.163 172.944 64.2562C173.936 64.3494 174.902 64.6705 175.787 65.2011C176.672 65.7317 177.459 66.4614 178.103 67.3486C178.747 68.2357 179.235 69.263 179.539 70.3717C179.843 71.4804 179.958 72.6488 179.877 73.8102L179.872 73.8106ZM220.476 73.7941C220.872 78.6639 220.964 82.6491 225.129 82.1758C229.294 81.7024 235.962 76.9586 235.555 72.079C235.364 69.737 234.387 67.5813 232.837 66.0862C231.287 64.591 229.293 63.8789 227.292 64.1065C225.291 64.3341 223.448 65.4827 222.168 67.2997C220.888 69.1166 220.276 71.4531 220.467 73.7951L220.476 73.7941Z" fill="#FFF3CF"/>
<path d="M167.208 66.0962C167.208 66.0962 161.769 59.762 160.834 50.3021C160.557 47.6329 161.092 44.9344 162.343 42.6897C163.594 40.4451 165.479 38.8008 167.66 38.0511L167.856 37.9917C167.856 37.9917 162.533 21.049 176.592 9.07584C190.652 -2.89732 204.026 16.5548 204.026 16.5548C204.649 15.2973 205.592 14.3051 206.72 13.7199C207.848 13.1347 209.103 12.9866 210.307 13.2966C210.307 13.2966 213.935 13.6799 214.148 18.6575C214.148 18.6575 219.661 10.1768 230.55 17.8552C243.995 27.3437 232.939 66.9467 232.939 66.9467C232.939 66.9467 233.53 65.7459 227.501 69.121L222.936 82.1628C222.936 82.1628 221.392 89.3357 210.307 104.986C210.307 104.986 208.532 110.167 199.461 107.594C189.727 104.832 194.211 96.619 187.071 95.8566C184.463 91.292 171.615 62.1089 167.208 66.0962Z" fill="#1E1D1E"/>
<path d="M22.856 85.2003C20.8814 85.5538 19.7673 88.6978 20.9483 89.9696C16.179 100.326 6.17717 121.828 4.86903 124.99C11.6278 125.317 19.9944 131.848 23.2648 135.073L38.6627 99.2356C39.9345 99.3718 42.4781 99.0993 42.4781 96.9191C42.6143 92.1498 34.711 88.4706 31.1681 86.5629C28.6184 85.19 23.401 85.1529 23.401 85.1529C23.401 85.1529 23.0663 85.1626 22.856 85.2003Z" fill="#651FBE"/>
<path d="M31.1681 86.5629C34.711 88.4706 42.6143 92.1498 42.4781 96.9191C42.7052 94.3755 43.5682 90.2421 41.933 86.5629C40.9552 84.3628 40.852 83.2451 37.1637 81.621C36.6032 81.3742 35.9598 81.1157 35.218 80.8399C35.097 80.7949 34.9735 80.7495 34.8473 80.7036C30.0507 78.9594 23.401 85.1529 23.401 85.1529C23.401 85.1529 28.6184 85.19 31.1681 86.5629Z" fill="#651FBE"/>
<path d="M42.4781 96.9191C42.6143 92.1498 34.711 88.4706 31.1681 86.5629C28.6184 85.19 23.401 85.1529 23.401 85.1529M42.4781 96.9191C42.4781 99.0993 39.9345 99.3718 38.6627 99.2356L23.2648 135.073M42.4781 96.9191C42.7052 94.3755 43.5682 90.2421 41.933 86.5629C40.9552 84.3628 40.852 83.2451 37.1637 81.621M23.2648 135.073C19.9944 131.848 11.6278 125.317 4.86903 124.99M23.2648 135.073C25.118 140.088 19.2222 139.888 16.0427 139.161C11.4097 137.526 1.98022 133.247 1.32615 129.214C0.672081 125.18 3.41554 124.717 4.86903 124.99M4.86903 124.99C6.17717 121.828 16.179 100.326 20.9483 89.9696C19.7673 88.6978 20.8814 85.5538 22.856 85.2003C23.0663 85.1626 23.401 85.1529 23.401 85.1529M23.401 85.1529C23.401 85.1529 30.0507 78.9594 34.8473 80.7036C34.9735 80.7495 35.097 80.7949 35.218 80.8399M35.218 80.8399C35.218 80.8399 36.6187 78.6596 36.3461 78.6596C36.0736 78.6596 33.6754 77.2697 34.4384 76.0706C35.3923 74.5717 37.4363 70.2112 38.1176 69.3936C38.7989 68.576 41.3879 69.9387 41.7967 70.4838C42.2055 71.0288 41.3879 73.6178 42.0693 74.5717C42.6143 75.3348 43.1594 75.1168 43.2956 76.4794C43.4319 77.842 41.5242 81.3849 38.7989 79.7498C38.7989 79.7498 38.7588 79.6645 38.5264 79.6135C37.6089 79.4123 37.1637 81.621 37.1637 81.621M35.218 80.8399C35.9598 81.1157 36.6032 81.3742 37.1637 81.621" stroke="#464646"/>
<path d="M23.3634 135.056C20.093 131.831 11.7264 125.299 4.96767 124.972C3.51418 124.699 0.770714 125.163 1.42478 129.196C2.07885 133.23 11.5083 137.508 16.1413 139.144C19.3209 139.87 25.2166 140.07 23.3634 135.056Z" fill="#683F9B"/>
<path d="M42.5767 96.9015C42.713 92.1322 34.8096 88.4531 31.2667 86.5454C28.7171 85.1724 23.4997 85.1353 23.4997 85.1353M42.5767 96.9015C42.5767 99.0817 40.0331 99.3543 38.7613 99.218L23.3634 135.056M42.5767 96.9015C42.8038 94.3579 43.6668 90.2246 42.0317 86.5454C41.0538 84.3453 40.9507 83.2275 37.2624 81.6035M23.3634 135.056C20.093 131.831 11.7264 125.299 4.96767 124.972M23.3634 135.056C25.2166 140.07 19.3209 139.87 16.1413 139.144C11.5083 137.508 2.07885 133.23 1.42478 129.196C0.770714 125.163 3.51418 124.699 4.96767 124.972M4.96767 124.972C6.27581 121.811 16.2776 100.308 21.0469 89.952C19.8659 88.6802 20.98 85.5363 22.9546 85.1827C23.1649 85.1451 23.4997 85.1353 23.4997 85.1353M23.4997 85.1353C23.4997 85.1353 30.1494 78.9418 34.9459 80.686C35.0721 80.7319 35.1957 80.7773 35.3166 80.8223M35.3166 80.8223C35.3166 80.8223 36.7173 78.6421 36.4448 78.6421C36.1722 78.6421 33.774 77.2522 34.5371 76.053C35.4909 74.5541 37.5349 70.1936 38.2162 69.3761C38.8975 68.5585 41.4866 69.9211 41.8954 70.4662C42.3042 71.0112 41.4866 73.6003 42.1679 74.5541C42.7129 75.3172 43.258 75.0992 43.3943 76.4618C43.5305 77.8245 41.6228 81.3673 38.8975 79.7322C38.8975 79.7322 38.8575 79.6469 38.625 79.5959C37.7076 79.3947 37.2624 81.6035 37.2624 81.6035M35.3166 80.8223C36.0584 81.0981 36.7018 81.3566 37.2624 81.6035" stroke="#464646"/>
<path d="M36.4448 78.6421C36.7173 78.6421 35.3166 80.8223 35.3166 80.8223C36.0584 81.0981 36.7018 81.3566 37.2624 81.6035C37.2624 81.6035 37.7076 79.3947 38.625 79.5959C38.8575 79.6469 38.8975 79.7322 38.8975 79.7322C41.6228 81.3673 43.5305 77.8245 43.3943 76.4618C43.258 75.0992 42.7129 75.3172 42.1679 74.5541C41.4866 73.6003 42.3041 71.0112 41.8954 70.4662C41.4866 69.9211 38.8975 68.5585 38.2162 69.3761C37.5349 70.1936 35.4909 74.5541 34.5371 76.053C33.774 77.2522 36.1722 78.6421 36.4448 78.6421Z" fill="#8A8A8A"/>
<path d="M42.5767 96.9015C42.713 92.1322 34.8096 88.4531 31.2667 86.5454C28.7171 85.1724 23.4997 85.1353 23.4997 85.1353M42.5767 96.9015C42.5767 99.0817 40.0331 99.3543 38.7613 99.218L23.3634 135.056M42.5767 96.9015C42.8038 94.3579 43.6668 90.2246 42.0317 86.5454C41.0538 84.3453 40.9507 83.2275 37.2624 81.6035M23.3634 135.056C20.093 131.831 11.7264 125.299 4.96767 124.972M23.3634 135.056C25.2166 140.07 19.3209 139.87 16.1413 139.144C11.5083 137.508 2.07885 133.23 1.42478 129.196C0.770714 125.163 3.51418 124.699 4.96767 124.972M4.96767 124.972C6.27581 121.811 16.2776 100.308 21.0469 89.952C19.8659 88.6802 20.98 85.5363 22.9546 85.1827C23.1649 85.1451 23.4997 85.1353 23.4997 85.1353M23.4997 85.1353C23.4997 85.1353 30.1494 78.9418 34.9459 80.686C35.0721 80.7319 35.1957 80.7773 35.3166 80.8223M35.3166 80.8223C35.3166 80.8223 36.7173 78.6421 36.4448 78.6421C36.1722 78.6421 33.774 77.2522 34.5371 76.053C35.4909 74.5541 37.5349 70.1936 38.2162 69.3761C38.8975 68.5585 41.4866 69.9211 41.8954 70.4662C42.3042 71.0112 41.4866 73.6003 42.1679 74.5541C42.7129 75.3172 43.258 75.0992 43.3943 76.4618C43.5305 77.8245 41.6228 81.3673 38.8975 79.7322C38.8975 79.7322 38.8575 79.6469 38.625 79.5959C37.7076 79.3947 37.2624 81.6035 37.2624 81.6035M35.3166 80.8223C36.0584 81.0981 36.7018 81.3566 37.2624 81.6035" stroke="#464646"/>
<path d="M36.8914 77.8421C36.3917 77.7967 35.5015 77.5151 35.9375 76.752M35.9375 76.752C36.3736 75.9889 37.8452 75.0714 38.5265 74.708C39.2079 74.3446 41.706 76.0707 40.9793 76.6157C40.2526 77.1608 38.7718 78.2781 38.6628 78.3872C38.5538 78.4962 37.9815 78.8868 37.7089 79.0685L36.8914 79.7498C36.7317 79.6433 36.7551 78.9322 36.7551 78.9322C36.7551 78.9322 36.2568 77.6034 35.9375 76.752Z" stroke="#2B045D"/>
<path d="M31.2667 86.5454C34.8096 88.4531 42.713 92.1322 42.5767 96.9015C42.8038 94.3579 43.6668 90.2246 42.0317 86.5454C41.0538 84.3453 40.9507 83.2275 37.2624 81.6035C36.7018 81.3566 36.0584 81.0981 35.3166 80.8223C35.1957 80.7773 35.0721 80.7319 34.9459 80.686C30.1494 78.9418 23.4997 85.1353 23.4997 85.1353C23.4997 85.1353 28.7171 85.1724 31.2667 86.5454Z" fill="#701CDC"/>
<path d="M42.5767 96.9015C42.713 92.1322 34.8096 88.4531 31.2667 86.5454C28.7171 85.1724 23.4997 85.1353 23.4997 85.1353M42.5767 96.9015C42.5767 99.0817 40.0331 99.3543 38.7613 99.218L23.3634 135.056M42.5767 96.9015C42.8038 94.3579 43.6668 90.2246 42.0317 86.5454C41.0538 84.3453 40.9507 83.2275 37.2624 81.6035M23.3634 135.056C20.093 131.831 11.7264 125.299 4.96767 124.972M23.3634 135.056C25.2166 140.07 19.3209 139.87 16.1413 139.144C11.5083 137.508 2.07885 133.23 1.42478 129.196C0.770714 125.163 3.51418 124.699 4.96767 124.972M4.96767 124.972C6.27581 121.811 16.2776 100.308 21.0469 89.952C19.8659 88.6802 20.98 85.5363 22.9546 85.1827C23.1649 85.1451 23.4997 85.1353 23.4997 85.1353M23.4997 85.1353C23.4997 85.1353 30.1494 78.9418 34.9459 80.686C35.0721 80.7319 35.1957 80.7773 35.3166 80.8223M35.3166 80.8223C35.3166 80.8223 36.7173 78.6421 36.4448 78.6421C36.1722 78.6421 33.774 77.2522 34.5371 76.053C35.4909 74.5541 37.5349 70.1936 38.2162 69.3761C38.8975 68.5585 41.4866 69.9211 41.8954 70.4662C42.3042 71.0112 41.4866 73.6003 42.1679 74.5541C42.7129 75.3172 43.258 75.0992 43.3943 76.4618C43.5305 77.8245 41.6228 81.3673 38.8975 79.7322C38.8975 79.7322 38.8575 79.6469 38.625 79.5959C37.7076 79.3947 37.2624 81.6035 37.2624 81.6035M35.3166 80.8223C36.0584 81.0981 36.7018 81.3566 37.2624 81.6035" stroke="#464646"/>
<defs>
<filter id="filter0_f_88_17" x="18.874" y="0.289062" width="278.729" height="678.859" filterUnits="userSpaceOnUse" color-interpolation-filters="sRGB">
<feFlood flood-opacity="0" result="BackgroundImageFix"/>
<feBlend mode="normal" in="SourceGraphic" in2="BackgroundImageFix" result="shape"/>
<feGaussianBlur stdDeviation="3.75" result="effect1_foregroundBlur_88_17"/>
</filter>
</defs>
</svg>
