<svg class="man-1-svg" viewBox="0 0 217 429" fill="none" xmlns="http://www.w3.org/2000/svg">
<path d="M114.453 348.507L135.805 365.942L128.455 371.923C128.455 371.923 123.23 375.319 115.916 371.97C109.315 368.944 105.972 371.739 105.972 371.739L94.7182 364.566L114.453 348.507Z" fill="#E3E3E3"/>
<path d="M88.2545 413.66L141.774 370.11L140.191 368.948L139.26 368.278L131.857 362.881C132.773 365.037 130.472 368.205 128.317 370.541C125.796 373.275 121.919 373.975 118.397 372.843C117.622 372.584 116.868 372.266 116.142 371.892C109.025 368.24 104.999 373.054 104.999 373.054C104.907 373.454 104.787 373.848 104.64 374.232L104.249 375.295C103.817 376.407 103.325 377.495 102.777 378.555C102.617 378.89 102.444 379.235 102.233 379.59C101.652 380.672 100.963 381.867 100.135 383.176C99.9518 383.508 99.7426 383.815 99.5413 384.184C96.4411 388.855 92.9417 393.251 89.0827 397.321C88.4779 398.012 87.9416 398.759 87.4812 399.553C87.2387 399.955 86.9913 400.403 86.7538 400.895C85.2746 404.003 84.3043 408.806 88.2545 413.66Z" fill="#464646"/>
<path d="M76.6001 240.9L129.9 353.2L96.0001 372.3L40.6001 271.7L44.1001 238.6L76.6001 240.9Z" fill="#5412A7"/>
<path d="M106.78 386.909C106.736 386.991 106.678 387.063 106.608 387.122C106.526 387.189 106.426 387.23 106.319 387.244C106.213 387.257 106.103 387.241 106 387.198L98.9965 384.084C99.2024 383.729 99.4061 383.405 99.586 383.077L106.43 386.113C106.575 386.181 106.692 386.302 106.757 386.45C106.822 386.598 106.83 386.762 106.78 386.909ZM109.464 382.194C109.438 382.288 109.384 382.369 109.309 382.428C109.226 382.493 109.126 382.534 109.02 382.546C108.913 382.558 108.803 382.542 108.702 382.498L101.641 379.379C101.836 379.011 102.012 378.652 102.162 378.321L109.128 381.415C109.2 381.446 109.267 381.49 109.323 381.546C109.38 381.603 109.425 381.669 109.457 381.742C109.488 381.815 109.505 381.892 109.507 381.97C109.508 382.048 109.493 382.124 109.464 382.194ZM111.581 377.84C111.536 377.93 111.473 378.008 111.396 378.07C111.318 378.135 111.224 378.176 111.122 378.19C111.021 378.204 110.915 378.19 110.818 378.15L103.58 374.931C103.722 374.498 103.853 374.143 103.939 373.824L111.233 377.047C111.379 377.114 111.497 377.234 111.562 377.382C111.627 377.53 111.633 377.694 111.581 377.84Z" fill="white"/>
<path d="M198 63.3086L197.783 65.1895L189.5 75.5L180.363 90L166 74L159.598 64.5931L159.761 63L198 63.3086Z" fill="#FFF3CF"/>
<path d="M46.9785 162.787L42.05 160.55C42.05 160.55 38.895 159.62 33.7398 156.895C32.3983 156.167 31.1459 155.233 30.1876 154.184C28.9135 152.851 27.3128 151.035 26.6432 149.769C25.8575 148.21 23.7552 148.224 23.4317 149.643C23.208 151.057 25.1439 155.359 29.3493 159.036C33.5548 162.714 25.1021 161.971 21.9904 161.839C18.8733 161.608 9.34931 161.424 8.59925 162.366C7.56589 163.624 8.85084 165.156 11.9625 165.288C15.0742 165.419 24.3474 166.518 24.3343 168.122C24.3211 169.725 8.53038 168.478 8.53038 168.478C8.53038 168.478 5.18104 167.659 5.08429 169.567C4.8637 172.884 21.5988 173.077 23.1964 172.99C24.2948 172.931 24.2925 174.733 23.0888 174.699C21.8852 174.664 7.37629 173.048 7.16112 176.464C7.00244 179.077 20.8952 176.72 23.9047 178.66C26.9142 180.6 13.0261 179.351 12.9619 181.858C12.9108 182.762 13.0486 183.456 20.9424 183.127C29.0305 182.688 50.6088 178.012 50.6088 178.012L46.6789 162.803" fill="#FFF3CF"/>
<path d="M150.383 91.7792C150.383 91.7792 112.523 148.915 103.267 151.82C94.0163 154.826 40.5686 160.931 40.5686 160.931L37.0328 184.357C37.0328 184.357 105.827 184.229 120.303 172.327C143.12 153.564 165.794 111.874 165.794 111.874C165.872 98.5498 160.422 92.2359 150.383 91.7792Z" fill="#464646"/>
<path d="M202.6 197.4C202.6 197.4 225.4 246.1 180.4 262.9L156.4 210.8L202.6 197.4Z" fill="#651FBE"/>
<path d="M174.1 79.9C157.1 80.3 143.2 93.8 142.4 110.8C141.7 125 143.1 144.4 139.3 161.5C137.3 170.3 125.8 205.7 125.8 205.7L137.3 207.6C155.1 210.6 173.4 209.7 190.8 205L203.9 201.5C203.9 201.5 211.5 162.1 215.7 125.1C219.3 94.2 213.4 82.2 194.6 79.5L174.1 79.9Z" fill="#464646"/>
<path d="M139.6 198.8L134.2 198.5C134.2 198.5 130.9 198.8 125.1 198.1C123.6 197.9 122.1 197.5 120.7 196.9C119 196.1 116.8 195 115.8 194.1C114.5 192.9 112.5 193.7 112.8 195.2C113.1 196.7 116.5 199.9 121.8 201.8C127.1 203.7 118.9 206.2 116 207.1C113.1 208 104.1 211.4 103.8 212.5C103.3 214.1 105.1 215 108 214C111 213 119.9 210.5 120.5 212C121 213.5 106 218.1 106 218.1C106 218.1 102.6 218.6 103.2 220.4C104.3 223.6 119.8 217.5 121.3 216.9C122.3 216.5 123 218.1 121.9 218.5C120.7 218.9 106.7 222.8 107.8 226C108.6 228.5 120.7 221.1 124.2 221.9C127.7 222.6 114.4 226.6 115.2 228.9C115.5 229.8 115.9 230.4 123.1 227.1C130.5 223.7 148.7 211.4 148.7 211.4L139.4 198.7" fill="#FFF3CF"/>
<path d="M155.9 209.3C155.9 209.3 181.4 202 197.6 186.9C210.5 174.9 210.3 163.7 210.3 163.7L216.4 116.9L155.9 209.3Z" fill="#2C2B2B"/>
<path d="M191.4 83.5C191.4 83.5 186.5 151.9 179.9 159C173.3 166.1 129.8 197.7 129.8 197.7L138.3 219.9C138.3 219.9 198.1 185.9 204.9 168.4C213 147.2 214.5 114.2 214.7 100.1C214.8 94.1 212.4 88.3 207.7 84.6C202.8 80.7 197.3 80.5 191.4 83.5Z" fill="#464646"/>
<path d="M189 105.1C189.2 105.1 189.3 106.7 189.3 109.5C189.3 112.3 189.2 116.5 188.9 121.5C188.5 126.6 187.9 132.7 186.4 139.3C184.9 145.9 182.3 153.1 178 159.8C173.6 166.4 168 171.6 162.7 175.8C157.4 180 152.3 183.3 148.1 186.2C139.7 191.9 134.9 195.9 134.7 195.6C134.6 195.5 135.7 194.3 137.8 192.4C139.9 190.5 143.1 187.9 147.2 184.8C151.3 181.7 156.2 178.3 161.4 174.1C166.5 169.9 171.9 164.8 176 158.5C180.1 152.1 182.7 145.2 184.2 138.8C185.8 132.4 186.6 126.4 187.2 121.4C188.3 111.4 188.7 105.1 189 105.1ZM175.2 83.8001L176.1 73.6001L192.7 70.6001L197.7 81.4001L175.2 83.8001ZM164.7 72.4001L171.3 73.6001V83.8001L163 82.1001L165 70.6001M144.8 120C144.8 130.7 143.5 141.3 140.9 151.7L144.8 120Z" fill="#2C2B2B"/>
<path d="M61.4429 385L67 412H57.5239C57.5239 412 51.328 411.336 47.7694 404.122C44.5588 397.609 40.2016 397.666 40.2016 397.666L36 385H61.4429Z" fill="#E3E3E3"/>
<path d="M0 419H69L68.505 417.1L68.2064 415.993L65.8705 407.134C65.2201 409.384 61.4361 410.39 58.2902 410.841C54.6085 411.37 51.1599 409.466 49.1431 406.365C48.7049 405.675 48.3206 404.953 47.9936 404.204C44.7782 396.88 38.6174 398.072 38.6174 398.072C38.2934 398.325 37.9516 398.555 37.5947 398.76L36.6211 399.337C35.5841 399.927 34.5162 400.46 33.4221 400.937C33.0866 401.095 32.7348 401.254 32.3462 401.396C31.213 401.868 29.9244 402.361 28.4558 402.853C28.104 402.996 27.7481 403.102 27.3595 403.26C22.0062 404.927 16.5175 406.128 10.9552 406.849C10.0502 407.003 9.16242 407.244 8.30437 407.57C7.86256 407.728 7.38805 407.919 6.89306 408.151C3.78403 409.629 0 412.742 0 419Z" fill="#464646"/>
<path d="M171.3 210.4C171.3 210.4 41.5 174.7 26.9 204.7C12.3 234.6 29.7 390.5 29.7 390.5L70.3 386.2C70.3 386.2 63.5 249.3 70.3 244.5C77.1 239.7 170.6 263.3 180.4 262.9C204.3 261.9 221.2 217.3 171.3 210.4Z" fill="#651FBE"/>
<path d="M31.2539 409.943C31.1685 409.979 31.0778 409.998 30.986 410C30.8803 409.999 30.7766 409.969 30.6854 409.912C30.5942 409.855 30.5188 409.773 30.4666 409.675L27 402.839C27.3833 402.694 27.7461 402.571 28.0923 402.43L31.4848 409.104C31.554 409.249 31.5687 409.417 31.5257 409.572C31.4828 409.728 31.3856 409.861 31.2539 409.943ZM36.3116 407.98C36.2323 408.036 36.1389 408.065 36.0437 408.064C35.9383 408.062 35.8352 408.03 35.7447 407.972C35.6543 407.915 35.5797 407.833 35.5285 407.734L32.0206 400.858C32.404 400.696 32.7667 400.529 33.0923 400.367L36.5425 407.164C36.5796 407.233 36.6031 407.309 36.6115 407.389C36.6199 407.468 36.6132 407.548 36.5916 407.625C36.57 407.701 36.534 407.772 36.4859 407.833C36.4378 407.894 36.3785 407.944 36.3116 407.98ZM40.7016 405.939C40.6104 405.98 40.5122 406.001 40.4131 406C40.3121 406.002 40.2126 405.974 40.1248 405.921C40.0371 405.868 39.9644 405.79 39.9143 405.697L36.3322 398.632C36.7156 398.386 37.0413 398.193 37.3092 398L40.9324 405.104C41.0036 405.248 41.0192 405.416 40.9761 405.571C40.933 405.727 40.8345 405.859 40.7016 405.939Z" fill="white"/>
<path d="M198 63.3231L197.779 65.2924C195.86 68.8896 193.024 71.8805 189.575 73.943C186.126 76.0055 182.196 77.0615 178.207 76.9972C174.218 76.933 170.321 75.751 166.937 73.5785C163.552 71.406 160.808 68.3253 159 64.668L159.166 63L198 63.3231Z" fill="#FFB0A9"/>
<path d="M176.519 74.8749C170.754 74.2592 165.472 71.401 161.836 66.929C158.199 62.457 156.505 56.7375 157.126 51.0285L159.524 29L203 33.6453L200.602 55.6696C200.294 58.4968 199.427 61.2362 198.05 63.7315C196.673 66.2267 194.813 68.4289 192.577 70.2123C190.341 71.9957 187.771 73.3254 185.016 74.1254C182.261 74.9254 179.373 75.1801 176.519 74.8749Z" fill="#FFF3CF"/>
<path d="M160.592 51.955C159.948 55.6562 159.632 58.6946 155.893 58.0569C152.154 57.4192 146.402 53.3513 147.05 49.6501C147.203 48.7697 147.53 47.9277 148.012 47.1722C148.493 46.4168 149.12 45.7626 149.858 45.247C150.595 44.7315 151.427 44.3647 152.307 44.1676C153.187 43.9705 154.098 43.947 154.988 44.0983C155.877 44.2497 156.728 44.5729 157.491 45.0497C158.254 45.5264 158.915 46.1473 159.436 46.8769C159.957 47.6064 160.327 48.4304 160.527 49.3017C160.726 50.173 160.749 51.0746 160.597 51.955H160.592ZM197.264 55.2227C197.29 58.9739 197.1 62.0249 200.894 61.9998C204.688 61.9748 211.034 58.8905 211 55.131C210.988 53.327 210.252 51.6016 208.954 50.3346C207.657 49.0675 205.904 48.3625 204.082 48.3747C202.259 48.3868 200.516 49.1152 199.236 50.3994C197.956 51.6837 197.244 53.4186 197.256 55.2227H197.264Z" fill="#FFF3CF"/>
<path d="M149.683 45.0402C149.683 45.0402 145.203 39.7631 145.005 32.4629C144.937 30.402 145.605 28.3844 146.888 26.7711C148.171 25.1579 149.985 24.0543 152.007 23.6581L152.188 23.6286C152.188 23.6286 148.537 10.259 162.053 2.25068C175.569 -5.7576 186.318 10.1789 186.318 10.1789C186.967 9.26879 187.886 8.58717 188.945 8.23139C190.004 7.87561 191.147 7.86388 192.213 8.19787C192.213 8.19787 195.464 8.78374 195.316 12.6024C195.316 12.6024 200.874 6.57093 210.184 13.3147C221.679 21.6476 208.988 51 208.988 51C208.988 51 206.605 46.6376 200.929 48.7282L202.466 37.9844C202.466 37.9844 191.561 43.3458 186.205 33.5715C186.205 33.5715 180.251 42.2204 172.234 39.5229C163.632 36.6273 164.205 46.5112 157.809 45.3521C157.8 45.3563 153.935 42.3511 149.683 45.0402Z" fill="#464646"/>
<path d="M172.004 63C171.947 64.5014 172.546 65.9641 173.675 67.0804C174.804 68.1966 176.376 68.8796 178.059 68.9855C179.742 69.0915 181.406 68.6122 182.701 67.6485C183.995 66.6847 184.819 65.3117 185 63.818L172.004 63Z" fill="white"/>
<path d="M190.971 44.1909C190.919 44.407 190.79 44.5948 190.611 44.717C190.431 44.8391 190.215 44.8868 190.003 44.8507L185.414 44.039C185.095 43.9539 184.822 43.7418 184.652 43.4486C184.483 43.1554 184.431 42.8046 184.508 42.472C184.554 42.3 184.632 42.1394 184.74 42.0004C184.847 41.8613 184.981 41.7467 185.133 41.6637C185.285 41.5807 185.451 41.531 185.622 41.5177C185.793 41.5044 185.965 41.5279 186.127 41.5865L190.429 43.1622C190.631 43.2321 190.8 43.3799 190.901 43.5752C191.002 43.7705 191.027 43.9986 190.971 44.2126V44.1909ZM169 42.3722C169 42.5944 169.081 42.8083 169.228 42.9698C169.375 43.1313 169.575 43.2281 169.789 43.2403L174.432 43.5876C174.764 43.5876 175.083 43.4504 175.317 43.2062C175.552 42.962 175.684 42.6307 175.684 42.2854C175.682 42.1063 175.644 41.9296 175.573 41.7663C175.502 41.6031 175.4 41.4568 175.272 41.3366C175.145 41.2165 174.994 41.125 174.831 41.0679C174.668 41.0108 174.495 40.9894 174.324 41.0049L169.784 41.4694C169.575 41.4869 169.379 41.586 169.237 41.7469C169.095 41.9079 169.016 42.1188 169.017 42.3375L169 42.3722ZM171.516 51.01C171.453 52.0604 172.008 52.9502 172.768 52.998C173.527 53.0457 174.169 52.2384 174.232 51.188C174.295 50.1375 173.744 49.2521 172.98 49.2C172.217 49.1479 171.578 49.9639 171.516 51.01Z" fill="#464646"/>
<path d="M171.943 55.9895L169.108 55.8128C168.393 55.7694 167.694 55.589 167.051 55.2818C166.408 54.9747 165.834 54.5468 165.36 54.0228C164.887 53.4988 164.524 52.8889 164.293 52.2279C164.061 51.5669 163.965 50.8679 164.011 50.1709L164.281 46L178 46.8218L177.726 50.9968C177.645 52.2587 177.108 53.4518 176.21 54.3637C175.313 55.2757 174.112 55.8474 172.823 55.9772C172.53 56.0027 172.236 56.0068 171.943 55.9895ZM165.03 46.8342L164.811 50.2243C164.771 50.8199 164.852 51.4173 165.049 51.9824C165.246 52.5475 165.555 53.0692 165.959 53.5176C166.363 53.9661 166.853 54.3325 167.402 54.5959C167.951 54.8593 168.548 55.0145 169.158 55.0526L171.993 55.2252C172.603 55.2648 173.215 55.1862 173.793 54.9942C174.372 54.8021 174.906 54.5003 175.364 54.1062C175.823 53.712 176.197 53.2333 176.465 52.6975C176.733 52.1618 176.889 51.5796 176.926 50.9845L177.145 47.5985L165.03 46.8342Z" fill="white"/>
<path d="M185.006 51.9062C184.933 53.0066 185.542 53.9427 186.381 53.9975C187.22 54.0523 187.926 53.1939 187.995 52.0934C188.063 50.993 187.454 50.0523 186.62 50.0021C185.785 49.9519 185.084 50.8012 185.006 51.9062Z" fill="#464646"/>
<path d="M189.379 56.9871L186.746 56.8146C185.408 56.7205 184.159 56.075 183.272 55.0185C182.384 53.9621 181.93 52.5803 182.009 51.174L182.259 47L195 47.8463L194.75 52.0162C194.675 53.2793 194.173 54.4728 193.335 55.3819C192.496 56.291 191.376 56.8559 190.177 56.9748C189.912 57.0036 189.644 57.0077 189.379 56.9871ZM182.959 47.834L182.756 51.2233C182.685 52.4231 183.07 53.6034 183.827 54.5052C184.584 55.4071 185.651 55.9569 186.793 56.034L189.426 56.2066C189.992 56.2461 190.56 56.1676 191.097 55.9756C191.635 55.7836 192.13 55.4819 192.556 55.0878C192.982 54.6937 193.329 54.2151 193.578 53.6795C193.827 53.1438 193.973 52.5618 194.006 51.9669L194.21 48.5776L182.959 47.834Z" fill="white"/>
<path d="M177.405 58.9982H177.445L182.693 57.9052C182.745 57.895 182.795 57.8726 182.839 57.8396C182.883 57.8065 182.92 57.7636 182.947 57.7139C182.974 57.6651 182.991 57.6107 182.997 57.5542C183.004 57.4978 182.998 57.4405 182.982 57.3864L179.41 45.2785C179.376 45.1787 179.308 45.0963 179.22 45.0475C179.131 44.9986 179.029 44.987 178.934 45.0148C178.886 45.0303 178.842 45.0557 178.804 45.0897C178.766 45.1236 178.734 45.1654 178.711 45.2125C178.688 45.2596 178.675 45.3112 178.67 45.3641C178.666 45.4171 178.672 45.4704 178.687 45.5209L182.133 57.195L177.302 58.2029C177.206 58.2283 177.122 58.2912 177.067 58.3793C177.012 58.4674 176.99 58.5744 177.004 58.6793C177.023 58.7761 177.074 58.8623 177.148 58.9212C177.222 58.9801 177.314 59.0075 177.405 58.9982Z" fill="#EA4335"/>
<path d="M164.703 46.7493L195.206 48.9981C195.304 49.0057 195.402 48.9905 195.495 48.9536C195.588 48.9167 195.673 48.8587 195.747 48.7829C195.821 48.7071 195.881 48.6151 195.924 48.5121C195.967 48.4091 195.992 48.2971 195.998 48.1826C196.005 48.0682 195.992 47.9534 195.96 47.8448C195.929 47.7362 195.879 47.636 195.814 47.5498C195.75 47.4637 195.671 47.3934 195.583 47.3429C195.495 47.2925 195.399 47.2629 195.301 47.2558L164.794 45.0019C164.696 44.9943 164.598 45.0096 164.504 45.0469C164.411 45.0841 164.325 45.1426 164.252 45.2189C164.178 45.2952 164.118 45.3878 164.075 45.4914C164.032 45.595 164.007 45.7075 164.002 45.8224C163.995 45.9373 164.008 46.0525 164.04 46.1614C164.072 46.2703 164.122 46.3707 164.187 46.4569C164.252 46.5431 164.332 46.6133 164.42 46.6635C164.509 46.7137 164.605 46.7428 164.703 46.7493Z" fill="#EA4335"/>
</svg>
